<!DOCTYPE svg PUBLIC "-//W3C//DTD SVG 20010904//EN" "http://www.w3.org/TR/2001/REC-SVG-20010904/DTD/svg10.dtd">
<svg version="1.0" xmlns="http://www.w3.org/2000/svg" width="804px" height="576px" viewBox="0 0 8040 5760" preserveAspectRatio="xMidYMid meet">
<g id="layer101" fill="#312f2f" stroke="none">
<path d="M6630 5590 c0 -5 -39 -9 -87 -8 -151 2 -139 7 -154 -67 l-13 -65 -310 -1 c-171 0 -369 -2 -441 -4 -71 -2 -974 -6 -2005 -9 -1307 -4 -1887 -3 -1916 5 -35 9 -41 15 -52 52 -9 30 -23 49 -49 66 -36 23 -41 23 -286 25 -137 0 -250 -1 -252 -4 -2 -3 -59 -6 -127 -8 l-123 -3 -35 -33 c-19 -18 -75 -65 -123 -106 -117 -97 -129 -122 -161 -331 -30 -195 -43 -499 -52 -1179 l-6 -455 35 -180 c20 -101 40 -244 46 -325 6 -80 14 -163 17 -185 12 -86 71 -281 149 -490 14 -38 23 -75 21 -82 -4 -10 -79 -13 -333 -15 l-328 -3 -8 -52 c-7 -41 -1 -99 22 -254 17 -111 33 -204 35 -206 2 -3 100 -4 218 -4 193 1 230 4 396 32 110 20 186 29 191 23 5 -5 71 -162 146 -349 127 -316 190 -450 386 -821 32 -61 66 -117 76 -126 10 -8 57 -38 104 -66 95 -56 80 -53 344 -72 83 -6 229 -18 325 -26 534 -44 517 -44 1840 -43 701 0 1307 2 1345 5 39 3 185 9 325 14 261 8 453 33 503 64 12 7 63 30 112 50 89 36 91 38 151 119 82 110 186 307 269 507 68 166 115 273 244 560 l69 155 63 -2 c35 -2 212 -5 393 -9 l328 -6 39 38 39 38 0 101 c0 100 8 133 29 121 7 -5 11 4 11 24 0 24 -4 30 -17 28 -15 -2 -20 8 -27 59 -6 38 -15 64 -24 68 -13 5 -265 24 -549 41 -133 8 -133 9 -79 107 32 59 98 210 110 252 8 28 52 272 70 385 8 52 25 198 36 325 12 126 26 235 31 241 7 8 6 14 -1 19 -7 4 -8 29 -3 73 8 82 9 67 -12 297 -10 105 -18 287 -19 407 -1 119 -4 220 -8 224 -12 11 -10 36 2 29 6 -3 10 1 10 9 0 8 -4 17 -8 20 -5 3 -12 131 -16 285 -7 258 -9 285 -30 338 -12 32 -36 92 -52 133 -32 84 -34 86 -124 137 -36 20 -90 50 -120 67 -30 17 -80 36 -110 42 -65 13 -470 17 -470 4z m-4764 -3901 c18 -9 23 -25 32 -103 5 -50 6 -98 2 -107 -10 -17 3 -44 17 -36 4 3 7 -12 5 -34 -10 -101 36 -168 130 -189 29 -6 157 -13 283 -16 127 -3 286 -9 355 -12 69 -4 147 -3 174 2 67 13 88 49 94 160 2 44 8 89 13 98 5 9 9 39 9 67 0 27 5 53 10 56 6 3 10 19 10 34 0 15 9 36 20 46 19 18 66 18 997 19 l977 1 22 -22 c19 -19 24 -41 34 -134 16 -162 42 -271 71 -300 10 -10 33 -19 49 -19 17 0 30 -5 30 -11 0 -6 8 -8 18 -5 9 3 175 10 367 16 285 8 363 13 418 28 37 10 71 22 76 28 21 23 39 117 40 219 1 60 6 114 11 119 6 6 10 27 10 47 0 20 6 41 13 47 7 6 67 12 141 13 116 1 130 -1 148 -18 18 -18 19 -24 7 -64 -7 -24 -17 -50 -22 -57 -5 -7 -16 -36 -23 -65 -31 -117 -50 -183 -62 -204 -7 -12 -12 -33 -12 -46 0 -13 -9 -34 -20 -47 -11 -13 -20 -33 -20 -46 0 -29 -50 -184 -66 -204 -6 -8 -15 -29 -19 -47 -9 -44 -47 -67 -102 -60 -31 3 -48 0 -59 -11 -12 -11 -29 -13 -78 -9 -35 3 -69 7 -77 9 -8 2 -13 -3 -11 -11 3 -12 0 -12 -12 -2 -11 9 -20 9 -34 2 -33 -17 -148 -20 -974 -26 l-798 -6 0 54 0 54 63 1 c98 2 270 12 295 17 21 5 22 9 22 119 l0 114 -45 11 c-46 12 -139 16 -546 26 l-217 5 -26 -44 c-16 -28 -30 -73 -37 -121 -16 -105 -15 -106 142 -111 68 -2 148 -6 177 -9 l52 -6 0 -54 0 -53 -802 5 c-442 3 -805 9 -808 12 -3 3 -63 6 -135 6 -139 0 -287 9 -320 20 -27 8 -77 116 -107 230 -6 22 -19 58 -29 80 -21 48 -59 169 -59 191 0 8 -7 26 -16 39 -8 13 -22 45 -29 72 -7 26 -25 80 -39 118 -24 65 -33 125 -21 137 9 9 270 -3 291 -13z"/>
</g>
<g id="layer102" fill="#504f4f" stroke="none">
<path d="M6630 5590 c0 -5 -39 -9 -87 -8 -151 2 -139 7 -154 -67 l-13 -65 -140 -1 c-78 0 -280 -2 -451 -4 -1055 -11 -4044 -14 -4081 -4 -35 9 -41 15 -52 52 -9 30 -23 49 -49 66 -36 23 -41 23 -286 25 -137 0 -250 -1 -252 -4 -2 -3 -59 -6 -127 -8 l-123 -3 -35 -33 c-19 -18 -75 -66 -123 -106 -117 -97 -129 -122 -161 -331 -30 -195 -43 -499 -52 -1179 l-6 -455 36 -185 c22 -113 42 -254 50 -361 17 -214 44 -319 161 -634 14 -38 23 -75 21 -82 -4 -10 -75 -13 -330 -13 -179 0 -327 -4 -330 -8 -3 -5 -8 -40 -10 -78 -5 -56 -4 -63 4 -37 22 69 72 80 449 92 144 5 267 13 273 19 10 10 7 18 -60 167 -82 181 -124 343 -142 555 -7 69 -16 134 -22 145 -6 11 -14 65 -19 120 -4 55 -14 131 -22 168 -13 58 -14 109 -7 330 9 271 16 333 50 452 11 39 38 142 61 230 61 238 78 302 106 385 37 112 157 350 200 399 l38 42 185 15 c185 15 501 25 1380 44 608 13 2325 13 2985 0 593 -11 1307 -36 1440 -50 50 -5 100 -6 113 -3 39 9 90 -57 179 -238 50 -99 96 -209 117 -279 43 -140 96 -345 96 -370 0 -10 7 -40 15 -66 67 -220 84 -341 90 -623 4 -146 1 -209 -10 -256 -8 -34 -26 -165 -39 -291 -39 -343 -105 -603 -191 -744 -40 -66 -55 -123 -35 -135 7 -5 129 -12 270 -16 345 -10 421 -25 433 -85 5 -28 -26 -275 -39 -309 -5 -13 -14 -15 -38 -10 -45 10 -154 23 -291 35 -66 6 -151 15 -190 20 -123 18 -192 17 -211 -2 -29 -29 -11 -48 48 -49 44 -1 48 -2 26 -9 -15 -4 -58 -4 -95 0 -49 7 -71 6 -79 -3 -6 -7 -25 -52 -44 -102 -99 -270 -377 -906 -461 -1055 -68 -123 -89 -147 -161 -188 -144 -82 -365 -106 -1313 -142 -322 -13 -2032 -12 -2220 0 -82 6 -283 17 -446 24 -164 7 -301 16 -306 19 -5 3 -92 11 -193 17 -142 10 -203 18 -260 36 -139 43 -222 116 -279 245 -14 30 -45 97 -69 149 -163 352 -288 643 -397 928 -33 85 -45 98 -74 82 -18 -9 -26 -5 -59 30 l-37 40 -120 -14 c-66 -8 -156 -17 -200 -21 -119 -9 -302 -34 -332 -46 -14 -5 -30 -6 -35 -1 -4 4 -13 57 -18 118 -8 75 -16 114 -26 124 -14 13 -15 12 -10 -15 3 -16 15 -90 26 -164 11 -74 22 -136 24 -138 2 -3 100 -4 218 -4 194 1 229 4 396 33 113 20 186 28 191 22 5 -5 71 -162 146 -349 127 -317 181 -431 381 -811 35 -66 72 -127 81 -136 10 -8 57 -38 104 -66 95 -56 84 -54 344 -72 88 -6 234 -17 325 -25 510 -45 520 -45 1842 -44 700 0 1305 2 1343 5 39 3 185 9 325 14 261 8 453 33 503 64 12 7 64 31 115 51 58 24 97 46 104 59 6 12 29 43 51 69 60 72 180 300 263 502 73 175 104 246 245 560 l67 150 63 -2 c35 -2 212 -5 393 -9 l328 -6 39 38 39 38 0 101 c0 100 8 133 29 121 7 -5 11 4 11 24 0 24 -4 30 -17 28 -15 -2 -20 8 -27 59 -6 43 -15 64 -25 68 -16 5 -570 45 -628 45 -44 0 -43 23 1 103 32 59 98 210 110 252 8 28 52 272 70 385 8 52 25 198 36 325 12 126 26 235 31 241 7 8 6 14 -1 19 -7 4 -8 29 -3 73 8 82 9 67 -12 292 -9 102 -18 271 -21 375 -2 105 -6 235 -9 290 -2 55 -7 210 -10 345 -6 241 -7 246 -36 325 -79 211 -69 196 -169 252 -36 20 -90 50 -120 67 -30 17 -80 36 -110 42 -65 13 -470 17 -470 4z m-5056 -88 c36 -25 54 -48 44 -57 -3 -3 -74 -9 -159 -15 -348 -22 -387 -36 -472 -170 -13 -19 -33 -40 -45 -46 -107 -53 -283 -390 -307 -587 -4 -30 -10 -45 -17 -41 -8 5 -9 62 -4 188 6 174 18 279 50 451 24 127 20 159 -16 118 -74 -85 -128 -420 -128 -792 0 -173 7 -229 24 -185 15 39 15 1 0 -67 -39 -174 -49 -118 -41 225 8 317 31 618 53 696 44 154 122 229 289 279 107 32 208 40 460 34 228 -5 230 -5 269 -31z m5447 27 c97 -8 208 -37 270 -69 83 -44 149 -132 183 -249 25 -86 40 -292 29 -401 l-10 -95 -2 105 c-1 122 -15 249 -37 335 -23 94 -93 229 -110 212 -4 -4 3 -55 14 -114 38 -191 52 -305 59 -460 3 -84 4 -153 0 -153 -7 0 -60 113 -99 210 -42 107 -147 296 -186 336 -19 20 -43 34 -56 34 -18 0 -28 9 -40 39 -20 51 -67 105 -110 125 -47 22 -153 35 -339 42 -88 3 -164 7 -169 10 -25 16 2 61 47 79 45 18 408 28 556 14z m-3016 -134 c292 1 562 2 600 4 115 5 1651 -7 1770 -14 430 -25 514 -35 567 -70 34 -23 69 -88 54 -102 -3 -3 -63 0 -133 7 -71 7 -247 16 -393 21 -146 4 -359 12 -475 18 -913 44 -3304 44 -4040 1 -93 -6 -282 -15 -420 -20 -137 -6 -290 -14 -340 -19 -141 -15 -165 -14 -165 7 0 25 35 78 64 97 42 28 91 35 301 45 463 23 711 28 1270 25 325 -2 617 1 650 5 33 4 83 5 110 1 28 -3 289 -6 580 -6z m3503 -1048 c12 -57 -6 -155 -19 -105 -12 47 -21 147 -14 158 11 18 22 0 33 -53z"/>
<path d="M1845 4950 c-441 -5 -451 -5 -485 -27 -41 -26 -87 -98 -130 -206 -43 -109 -40 -112 109 -103 63 3 112 3 108 0 -10 -11 -199 -25 -437 -33 -232 -7 -275 -15 -322 -58 -15 -14 -26 -63 -14 -63 2 0 28 11 58 25 33 15 80 26 123 30 39 3 550 7 1138 9 l1067 4 0 -128 c0 -90 4 -131 12 -136 11 -7 1879 -6 1886 0 1 2 4 57 6 124 3 67 7 126 11 132 5 8 1242 7 2045 -2 214 -3 215 -3 278 -32 34 -16 66 -26 69 -22 14 13 -22 61 -60 79 -57 28 -166 40 -339 35 -87 -3 -163 -1 -170 3 -9 6 -7 14 10 32 l22 24 -58 124 c-59 125 -97 173 -145 184 -29 7 -4208 11 -4782 5z m3955 -45 c13 -4 20 -15 20 -33 0 -15 7 -62 14 -105 8 -43 12 -87 9 -98 -5 -19 -26 -19 -1818 -19 -997 0 -1821 -3 -1830 -7 -17 -6 -18 -1 -10 78 5 46 10 104 11 129 1 25 2 47 3 50 2 8 3577 13 3601 5z m-3805 -120 l0 -110 -115 -3 -115 -3 -1 95 c0 61 -5 100 -13 110 -11 14 0 16 96 19 59 2 117 3 128 3 19 -1 20 -8 20 -111z m-275 98 c0 -5 -15 -27 -34 -50 -22 -28 -36 -59 -40 -88 -9 -59 -27 -75 -82 -75 l-44 0 0 40 c0 56 19 137 35 150 23 19 165 38 165 23z m4703 -2 c21 -5 45 -17 52 -27 14 -20 35 -111 35 -155 0 -37 -31 -46 -97 -27 l-48 14 -2 73 c-2 90 -7 103 -35 99 -19 -3 -24 -13 -35 -73 -22 -121 -15 -116 -145 -113 l-113 3 -3 94 c-1 52 -1 100 2 108 4 10 44 13 178 13 95 0 190 -4 211 -9z m-4268 -250 c-16 -16 -117 -18 -122 -3 -4 9 13 12 63 12 43 0 64 -4 59 -9z m-375 -21 c0 -5 -12 -10 -26 -10 -14 0 -23 4 -19 10 3 6 15 10 26 10 10 0 19 -4 19 -10z m3322 -13 c69 -1 129 -5 133 -9 15 -15 -197 -19 -1155 -22 -857 -2 -1276 3 -1185 13 168 19 716 28 1425 24 360 -2 712 -5 782 -6z"/>
<path d="M675 4201 c-51 -12 -74 -30 -95 -71 -31 -60 -24 -65 25 -22 25 22 59 42 76 46 55 11 6620 7 6659 -4 19 -5 54 -24 78 -41 24 -17 46 -29 49 -26 12 13 -44 93 -77 110 -33 16 -212 17 -3360 16 -1829 -1 -3338 -4 -3355 -8z"/>
<path d="M1915 4090 l-1250 -5 -37 -23 c-50 -31 -88 -78 -88 -108 0 -14 4 -23 8 -20 22 14 170 46 277 61 110 15 391 16 3235 13 l3115 -3 100 -22 c55 -12 116 -27 135 -33 96 -28 104 -1 22 82 l-59 58 -1309 0 c-720 0 -1667 1 -2104 3 -437 1 -1357 0 -2045 -3z"/>
<path d="M730 3953 c-53 -10 -51 -2 -80 -293 -38 -375 -49 -443 -70 -462 -20 -16 -26 -60 -14 -105 9 -33 16 -28 41 25 24 50 64 122 90 161 12 19 14 40 9 110 -8 96 7 255 28 305 16 38 39 44 184 48 l83 2 -3 95 -3 96 -35 -3 c-30 -2 -106 7 -185 22 -11 2 -31 2 -45 -1z"/>
<path d="M7175 3939 c-16 -5 -56 -6 -87 -3 l-58 7 0 -101 0 -100 120 -4 c72 -2 124 -8 131 -15 28 -28 55 -288 33 -324 -4 -7 -9 -35 -11 -63 -5 -74 -22 -173 -35 -201 -7 -16 -25 -29 -47 -35 -47 -13 -51 -13 -51 4 0 8 13 17 29 21 16 3 34 12 40 19 6 7 21 60 32 117 29 135 29 321 2 395 l-19 49 -198 3 c-187 2 -197 1 -192 -16 6 -19 26 -366 26 -459 0 -43 -3 -51 -15 -47 -17 7 -48 -14 -40 -26 3 -5 30 -16 60 -25 41 -13 77 -16 146 -13 79 4 88 3 59 -7 -68 -23 -65 -84 25 -482 50 -223 59 -250 83 -271 39 -33 72 -39 86 -16 62 105 127 343 156 572 9 70 8 76 -20 139 -17 36 -48 95 -71 130 -22 36 -38 70 -36 76 4 13 93 -121 116 -175 18 -43 31 -49 31 -15 0 12 3 46 6 75 6 48 5 52 -14 52 -35 0 -35 2 -95 545 l-23 200 -69 2 c-39 1 -83 -3 -100 -8z"/>
<path d="M618 3921 c-28 -23 -43 -66 -58 -171 -6 -41 -22 -125 -37 -187 l-26 -112 28 -116 c16 -63 32 -115 36 -115 11 0 19 41 29 148 26 270 58 534 66 557 8 21 -9 19 -38 -4z"/>
<path d="M1047 3928 c-7 -4 -13 -43 -16 -93 l-3 -85 43 0 c24 0 1368 -1 2987 -2 l2944 -3 -6 90 c-3 50 -5 92 -6 95 0 8 -5931 6 -5943 -2z"/>
<path d="M7380 3899 c0 -16 4 -60 10 -97 5 -37 21 -175 36 -306 14 -132 31 -251 39 -265 l13 -26 6 25 c3 14 13 69 22 122 19 107 22 82 -36 363 -36 177 -37 180 -56 200 -23 23 -34 18 -34 -16z"/>
<path d="M1335 3719 c-82 -4 -151 -7 -153 -8 -5 -2 11 -87 19 -95 5 -5 14 -4 22 3 18 14 103 19 116 6 12 -12 -39 -171 -53 -168 -5 0 -25 32 -45 69 -32 62 -36 66 -42 44 -4 -14 -7 -57 -8 -96 -1 -71 -17 -178 -30 -202 -4 -7 -7 89 -7 212 1 123 -1 226 -4 228 -3 3 -87 2 -188 -2 -154 -5 -185 -9 -200 -23 -26 -27 -25 -370 2 -475 15 -62 23 -75 45 -84 52 -20 364 -13 383 9 5 7 7 24 4 38 -6 22 -3 25 19 25 15 0 55 -10 90 -22 35 -13 66 -20 69 -17 3 3 -3 23 -14 44 -26 51 -25 74 5 115 14 19 25 42 25 51 0 20 64 79 85 79 19 0 19 12 -2 48 -15 26 -16 38 -6 84 10 47 9 56 -7 79 l-19 27 37 6 c36 6 216 -1 260 -10 15 -3 22 -12 22 -29 0 -60 -43 -115 -90 -115 -24 0 -33 -6 -41 -27 -5 -15 -9 -38 -7 -52 3 -23 9 -27 56 -33 35 -4 62 -14 77 -28 57 -53 88 10 33 67 l-33 34 24 20 24 20 27 -26 c43 -41 59 -32 70 40 4 22 9 47 11 55 4 16 -3 16 -68 4 -43 -9 -44 12 -3 56 l30 32 118 -7 c64 -4 122 -11 129 -17 20 -16 32 -70 30 -133 -3 -56 -5 -61 -32 -73 -36 -16 -41 -19 -93 -57 -22 -16 -54 -38 -71 -47 l-31 -17 0 -100 0 -100 -45 -6 c-24 -4 -78 -6 -118 -3 -63 3 -79 7 -113 33 l-39 30 38 3 c24 2 37 8 37 18 0 15 -84 74 -106 74 -14 0 -26 -91 -13 -104 16 -17 10 -26 -19 -26 -15 0 -39 -8 -52 -17 -25 -18 -185 -38 -380 -49 -43 -2 -80 -9 -88 -17 -7 -8 -17 -51 -22 -98 -9 -88 -76 -416 -104 -508 -25 -85 -22 -99 22 -110 50 -13 219 -37 370 -52 115 -12 125 -11 155 6 37 21 483 353 541 402 42 35 76 42 95 20 20 -24 -57 -104 -244 -252 -82 -66 -270 -228 -273 -237 -2 -4 2 -8 10 -9 7 0 96 -4 198 -9 102 -5 302 -14 444 -20 l260 -12 18 22 c15 19 21 20 33 10 16 -13 152 -22 160 -11 4 8 91 5 121 -4 12 -4 25 -1 33 9 14 17 41 11 41 -10 0 -19 19 -18 42 3 14 13 24 14 36 7 10 -6 87 -9 186 -8 148 2 172 0 182 -14 11 -16 14 -15 31 1 24 21 43 22 43 3 0 -8 3 -22 6 -31 6 -15 -25 -16 -427 -11 -239 2 -526 10 -639 15 -113 6 -335 15 -495 21 -289 9 -343 16 -400 50 -18 10 -62 20 -110 24 -116 9 -235 25 -362 48 -62 11 -119 18 -128 14 -34 -13 -36 -52 -5 -133 48 -131 277 -773 303 -853 54 -164 321 -753 372 -820 19 -25 46 -61 59 -81 60 -88 251 -120 911 -149 132 -6 337 -15 455 -20 282 -13 1612 -13 2085 0 352 10 740 29 1035 50 216 16 365 62 397 124 9 17 29 46 45 64 32 38 73 117 181 352 85 187 102 226 162 395 24 66 86 237 139 380 53 143 113 305 133 360 20 55 51 140 70 189 18 48 33 96 33 106 0 28 -52 44 -103 32 -55 -14 -406 -62 -453 -62 -20 0 -68 -14 -107 -31 l-72 -32 -255 -8 c-140 -5 -349 -14 -465 -21 -308 -17 -1576 -17 -1583 0 -8 23 16 38 38 24 25 -15 53 -15 68 0 8 8 15 8 24 0 9 -7 36 -8 85 -2 85 11 287 15 301 6 6 -4 13 -2 17 4 3 5 17 10 31 10 17 0 24 -5 24 -20 0 -28 19 -25 30 5 11 30 26 32 42 5 16 -26 34 -26 41 0 7 26 24 26 32 0 8 -26 35 -26 42 0 6 23 41 27 49 5 8 -20 41 -19 52 1 13 22 68 15 64 -8 -2 -13 4 -18 18 -18 17 0 20 4 15 20 -5 16 -2 20 15 20 11 0 23 -6 26 -13 3 -9 24 -14 64 -14 48 0 59 4 63 19 7 24 28 23 34 -1 6 -25 32 -35 38 -16 3 8 7 22 10 31 8 24 29 11 35 -22 3 -16 9 -28 13 -26 4 1 11 2 16 2 5 0 11 14 15 31 7 37 39 37 44 0 l4 -24 171 7 c95 3 233 11 307 16 74 5 200 10 280 10 80 1 153 5 163 8 14 6 -15 35 -147 145 -248 207 -366 316 -366 337 0 11 9 24 20 30 23 12 -9 34 360 -242 129 -96 241 -182 249 -191 9 -11 29 -17 60 -17 69 0 383 38 460 56 l68 15 -7 37 c-13 64 -38 172 -75 329 -19 84 -40 187 -45 230 -6 43 -15 91 -21 106 -11 26 -15 28 -68 27 -97 -3 -344 19 -399 36 -60 18 -74 37 -74 100 0 24 -4 46 -8 49 -10 6 -85 -29 -94 -43 -3 -5 2 -21 10 -37 13 -25 12 -29 -3 -42 -38 -29 -68 -35 -158 -28 -50 4 -93 12 -97 18 -4 7 -8 49 -8 95 0 89 -5 100 -69 134 -17 10 -39 31 -49 48 -11 20 -25 30 -40 30 -52 0 -62 15 -62 93 0 40 6 83 13 97 12 24 18 25 131 32 73 4 126 3 138 -3 16 -9 48 -58 48 -75 0 -3 -25 -3 -56 1 -41 5 -54 4 -49 -5 4 -6 9 -30 11 -52 4 -39 27 -78 46 -78 5 0 14 11 20 25 13 29 48 34 69 9 12 -14 10 -19 -14 -39 -24 -19 -28 -28 -25 -64 l3 -42 50 32 c32 20 63 32 90 33 l40 1 -2 49 c-2 51 -15 69 -44 60 -22 -6 -74 39 -87 74 -5 15 -6 37 -1 50 8 21 12 22 159 22 97 0 150 -4 150 -10 0 -6 -7 -21 -16 -35 -13 -19 -13 -28 -3 -46 14 -28 14 -78 0 -92 -18 -18 -12 -47 12 -56 38 -15 82 -73 102 -133 15 -49 16 -64 7 -97 -7 -21 -12 -43 -12 -50 0 -14 42 -15 56 -1 6 6 35 18 65 28 l54 17 0 215 c0 212 -7 275 -33 285 -7 3 -265 5 -573 6 l-560 2 -24 -23 c-21 -20 -25 -33 -25 -86 0 -34 9 -106 19 -160 10 -55 22 -121 25 -149 10 -91 26 -128 74 -173 l46 -43 217 7 c152 5 221 3 235 -4 19 -11 18 -11 -1 -13 -93 -9 -433 -11 -2479 -10 -1838 1 -2107 3 -2096 15 10 13 54 14 284 9 239 -4 277 -3 304 11 20 10 34 27 38 44 3 15 19 65 34 112 16 47 36 125 45 173 9 48 20 100 26 114 13 34 -5 125 -29 146 -14 12 -60 17 -232 22 -296 10 -626 11 -805 4z m5490 -111 c-9 -31 -77 -148 -86 -148 -9 0 -58 153 -52 163 2 4 36 7 74 7 68 0 70 -1 64 -22z m-4477 -12 c3 -3 -1 -70 -8 -148 -14 -152 -40 -243 -84 -291 -21 -22 -28 -24 -107 -20 -133 6 -151 10 -147 36 2 17 14 24 63 34 33 7 72 10 87 7 39 -8 43 16 41 219 l-2 177 76 -4 c42 -3 78 -8 81 -10z m3498 -11 c3 -14 3 -46 -1 -72 -11 -72 -9 -244 4 -277 10 -25 15 -28 42 -22 57 11 149 -23 149 -54 0 -9 -125 -24 -196 -25 -64 0 -86 18 -114 93 -21 56 -50 248 -50 332 l0 45 80 2 c77 2 80 1 86 -22z m634 -495 c17 -5 -4 -8 -60 -8 -59 0 -76 3 -55 8 39 10 84 10 115 0z m-3004 -874 c4 -11 33 -15 127 -17 136 -2 171 -2 207 3 17 2 25 -2 28 -14 3 -17 -11 -18 -197 -18 -211 0 -212 0 -195 44 8 20 23 21 30 2z m-1851 -56 c127 -9 457 -18 1495 -41 509 -11 1584 -14 1600 -4 5 3 186 8 402 10 482 7 1044 22 1238 35 223 15 519 16 561 1 75 -25 76 -89 5 -331 -66 -227 -164 -496 -264 -725 -59 -135 -191 -395 -219 -433 -29 -38 -82 -67 -161 -87 -136 -34 -698 -61 -1612 -77 -1106 -19 -2588 18 -2903 73 -75 13 -135 39 -171 75 -61 61 -277 534 -396 864 -62 175 -147 464 -155 528 -13 110 42 134 285 126 91 -3 224 -9 295 -14z"/>
<path d="M1587 1719 c-35 -14 -42 -45 -22 -100 9 -24 20 -64 25 -89 9 -52 29 -100 42 -100 11 0 12 -6 -28 109 -20 58 -34 116 -32 134 l3 32 140 -4 c77 -2 146 -8 153 -13 6 -6 12 -7 12 -2 0 5 5 2 10 -6 6 -9 10 -10 10 -3 0 23 -32 43 -69 43 -21 0 -78 2 -127 5 -52 3 -100 0 -117 -6z"/>
<path d="M6218 1723 c-80 -5 -124 -51 -102 -107 10 -27 24 -7 24 34 0 49 0 49 172 53 125 4 126 4 137 -20 11 -25 -4 -111 -22 -124 -5 -4 -15 -31 -23 -60 -30 -118 -50 -185 -62 -206 -7 -12 -12 -33 -12 -46 0 -13 -9 -34 -20 -47 -11 -13 -20 -33 -20 -45 0 -29 -49 -185 -66 -210 -8 -11 -14 -28 -14 -38 0 -10 -11 -29 -25 -42 -20 -21 -34 -25 -84 -25 -33 0 -61 -4 -63 -9 -4 -12 -126 -22 -133 -11 -4 6 -12 10 -18 10 -7 0 -6 -4 3 -10 13 -9 13 -10 -1 -10 -8 0 -20 5 -26 11 -8 8 -17 8 -31 0 -11 -6 -33 -11 -49 -12 -27 -1 -26 -2 7 -10 50 -14 305 -1 363 17 34 12 52 24 63 46 27 52 124 329 124 354 0 12 4 25 9 29 5 3 12 20 16 38 4 17 16 61 26 97 11 36 29 94 40 130 11 36 27 86 35 112 17 51 10 79 -26 98 -18 9 -97 11 -222 3z"/>
<path d="M2984 1653 c-17 -41 -32 -233 -15 -198 5 11 10 37 10 57 2 65 24 129 54 154 l29 24 -31 0 c-26 0 -33 -6 -47 -37z"/>
<path d="M3265 1679 c60 -12 1508 -11 1500 1 -4 7 -271 10 -773 9 -434 -1 -750 -5 -727 -10z"/>
<path d="M4800 1680 c-12 -8 -9 -10 13 -10 15 0 27 5 27 10 0 13 -20 13 -40 0z"/>
<path d="M4875 1680 c-4 -6 5 -10 19 -10 14 0 26 5 26 10 0 6 -9 10 -19 10 -11 0 -23 -4 -26 -10z"/>
<path d="M5003 1666 c34 -32 39 -32 28 -3 -5 12 -18 24 -32 26 -24 3 -24 3 4 -23z"/>
<path d="M1896 1603 c3 -32 7 -68 10 -81 2 -12 0 -31 -6 -41 -7 -14 -6 -22 5 -31 25 -20 29 12 15 115 -13 102 -34 133 -24 38z"/>
<path d="M5055 1477 c9 -112 27 -146 21 -40 -2 44 -9 89 -16 100 -9 14 -10 1 -5 -60z"/>
<path d="M6100 1451 c-5 -11 -10 -35 -10 -53 0 -58 -18 -103 -52 -129 -28 -20 -48 -25 -131 -30 -55 -3 -102 -11 -105 -16 -4 -6 -18 -13 -32 -16 -14 -2 13 -2 60 0 47 2 120 12 163 21 69 15 80 20 94 47 12 23 35 195 26 195 -1 0 -7 -9 -13 -19z"/>
<path d="M1630 1409 c0 -17 59 -207 117 -374 19 -55 37 -111 40 -125 8 -35 41 -69 88 -91 35 -16 67 -19 248 -19 114 0 207 3 207 8 0 4 -91 8 -203 9 -252 2 -268 6 -302 81 -14 30 -25 61 -25 69 0 7 -9 31 -20 53 -11 22 -20 49 -20 60 0 12 -7 35 -16 51 -8 17 -30 79 -48 138 -31 102 -66 176 -66 140z"/>
<path d="M1927 1322 c3 -13 21 -39 40 -57 38 -36 94 -53 188 -54 28 -1 59 -4 70 -7 19 -6 19 -6 0 12 -14 15 -39 20 -116 24 l-99 5 -44 50 c-34 38 -43 44 -39 27z"/>
<path d="M2924 1293 c-10 -15 -29 -41 -42 -57 l-24 -30 -109 3 c-70 2 -109 -1 -109 -8 0 -13 162 -19 215 -7 51 11 83 40 91 83 8 45 0 51 -22 16z"/>
<path d="M5090 1281 c0 -25 30 -69 52 -75 36 -9 45 -6 21 7 -12 7 -34 28 -48 47 -14 18 -25 28 -25 21z"/>
<path d="M2398 1203 c12 -2 32 -2 45 0 12 2 2 4 -23 4 -25 0 -35 -2 -22 -4z"/>
<path d="M5207 1204 c-15 -15 7 -19 102 -16 59 2 99 7 96 13 -7 10 -188 13 -198 3z"/>
<path d="M5588 1203 c29 -2 74 -2 100 0 26 2 2 3 -53 3 -55 0 -76 -1 -47 -3z"/>
<path d="M3607 1148 c-15 -25 -30 -75 -37 -121 -15 -93 -10 -102 65 -111 l50 -6 -35 18 c-19 9 -38 21 -42 27 -4 5 -8 42 -8 82 0 109 -23 103 398 103 333 0 355 -1 392 -20 49 -25 50 -25 50 4 0 43 -42 47 -591 61 l-217 5 -25 -42z"/>
<path d="M4405 940 c-14 -15 -33 -20 -99 -23 l-81 -3 92 -2 c104 -2 123 2 123 29 0 24 -12 24 -35 -1z"/>
<path d="M3800 913 c19 -1 59 -6 88 -9 l52 -5 0 -55 c0 -32 4 -53 9 -49 6 3 10 27 9 54 0 61 -19 72 -121 69 -40 0 -56 -3 -37 -5z"/>
<path d="M4061 908 c-18 -6 -21 -16 -21 -63 0 -30 5 -55 10 -55 6 0 10 25 10 55 l0 55 53 -6 c39 -5 62 -2 83 9 28 15 27 15 -43 14 -39 0 -81 -4 -92 -9z"/>
<path d="M3700 779 c15 -5 67 -6 130 0 l105 8 -130 1 c-90 0 -122 -2 -105 -9z"/>
<path d="M4125 780 c90 -12 203 -11 210 0 4 7 -42 9 -132 9 -112 -2 -127 -3 -78 -9z"/>
<path d="M2423 3723 c-20 -7 -15 -58 6 -78 12 -10 21 -33 23 -57 l3 -39 690 1 c495 0 686 -3 679 -10 -8 -8 -206 -11 -657 -10 -355 0 -664 -2 -686 -6 -47 -8 -58 -21 -63 -82 l-3 -42 690 -3 690 -2 3 -30 c2 -21 0 -26 -7 -16 -8 12 -105 15 -593 18 -320 1 -632 0 -693 -5 l-110 -7 -3 -28 -3 -28 722 2 c450 1 724 -1 726 -7 2 -6 -269 -9 -727 -8 -708 1 -730 1 -735 -17 -4 -11 -4 -32 0 -48 5 -24 2 -30 -15 -36 -16 -5 -20 -13 -18 -33 l3 -27 1669 -3 c919 -1 1674 2 1678 6 5 5 0 20 -11 33 -19 23 -22 24 -163 22 -86 -1 -131 2 -113 7 17 4 78 8 138 9 l107 1 0 34 c0 18 -6 38 -12 43 -8 5 -310 9 -729 8 -680 0 -717 1 -708 18 11 19 25 22 34 7 5 -8 649 -9 1323 -1 69 1 72 2 72 25 l0 24 -342 7 c-496 11 -1021 3 -1043 -15 -15 -13 -16 -11 -13 16 3 25 7 29 33 30 17 0 328 1 693 2 574 2 662 4 662 17 0 8 -9 19 -19 25 -27 14 -1327 14 -1336 0 -8 -13 -25 -3 -25 15 0 11 115 13 675 14 372 0 680 3 686 6 5 4 3 17 -7 33 l-15 27 -202 -2 c-730 -9 -1177 -8 -1177 4 0 10 148 13 688 15 l687 3 1 36 c0 20 8 46 17 60 18 25 22 55 8 63 -11 7 -3162 16 -3178 9z m1507 -92 c0 -14 -62 -33 -73 -22 -5 5 -6 14 -3 20 9 13 76 15 76 2z m244 0 c3 -5 0 -14 -8 -20 -15 -13 -66 1 -66 19 0 12 67 14 74 1z m-144 -66 c15 -18 9 -50 -9 -50 -19 0 -36 29 -28 49 8 20 21 21 37 1z m-245 -106 c-4 -5 -259 -9 -653 -8 -356 1 -633 5 -617 9 44 12 1277 11 1270 -1z m85 -8 c0 -11 -4 -23 -10 -26 -6 -4 -10 5 -10 19 0 14 5 26 10 26 6 0 10 -9 10 -19z m103 -30 c-4 -36 -54 -132 -66 -128 -23 7 -18 57 9 107 29 53 61 65 57 21z m140 -26 c34 -69 35 -98 5 -93 -16 2 -28 18 -45 63 -13 33 -21 66 -18 72 10 27 32 11 58 -42z m-79 -81 c3 -9 6 -27 6 -40 0 -19 -5 -24 -24 -24 -34 0 -40 14 -21 50 17 33 30 38 39 14z m-131 -125 c-10 -4 -112 -7 -228 -7 -118 0 -197 4 -180 8 17 4 108 8 203 9 146 1 174 3 179 16 5 14 8 14 25 -2 18 -16 18 -18 1 -24z m258 21 c14 -11 18 -19 11 -20 -19 0 -52 19 -52 30 0 16 16 12 41 -10z m-132 -26 c2 -2 -12 -4 -32 -4 -20 0 -38 4 -42 9 -5 9 64 4 74 -5z m-1251 -1 c-21 -2 -55 -2 -75 0 -21 2 -4 4 37 4 41 0 58 -2 38 -4z"/>
<path d="M1760 3305 c-14 -8 -38 -19 -53 -25 -38 -13 -29 -23 44 -49 75 -28 87 -21 68 40 -16 49 -25 54 -59 34z"/>
<path d="M6233 3312 c-16 -10 -35 -62 -29 -79 7 -17 26 -16 92 3 49 14 73 34 41 34 -7 0 -29 11 -49 25 -42 28 -39 27 -55 17z"/>
<path d="M721 3272 c-1 -14 -83 -146 -120 -194 -17 -21 -21 -40 -21 -101 0 -150 63 -436 126 -574 38 -85 55 -91 108 -40 30 28 37 47 64 162 51 216 91 426 94 500 l3 70 -86 0 c-100 0 -139 18 -139 63 0 29 -28 136 -29 114z"/>
<path d="M6010 2692 c0 -10 112 -112 205 -187 67 -54 128 -105 219 -182 33 -29 71 -53 83 -53 26 0 53 10 53 19 0 3 -32 31 -71 61 -40 30 -95 74 -124 97 -163 131 -365 266 -365 245z"/>
<path d="M1923 2643 c-39 -27 -118 -84 -175 -128 -56 -44 -146 -111 -198 -149 -52 -38 -97 -70 -99 -72 -8 -8 7 -15 42 -21 33 -5 42 0 127 73 50 44 128 107 173 142 104 80 217 180 217 193 0 16 -15 10 -87 -38z"/>
</g>
<g id="layer103" fill="#696768" stroke="none">
<path d="M6630 5590 c0 -5 -39 -9 -87 -8 -151 2 -139 7 -154 -67 l-13 -65 -145 -1 c-80 -1 -234 -3 -341 -4 -107 -1 -421 -3 -698 -4 -474 -1 -503 -2 -500 -18 3 -16 20 -19 133 -24 72 -4 324 -5 560 -3 522 4 1194 -11 1367 -30 70 -8 143 -22 163 -31 48 -23 85 -70 85 -107 l0 -31 -47 7 c-154 20 -266 28 -503 36 -146 5 -371 14 -500 19 -964 42 -3091 42 -3935 0 -115 -5 -318 -14 -450 -19 -132 -5 -276 -14 -320 -19 -118 -15 -225 -14 -225 2 0 6 10 30 23 51 31 55 90 84 197 96 150 16 891 31 1355 26 533 -5 738 2 743 24 2 13 -91 15 -795 13 -525 -2 -812 1 -839 8 -35 9 -41 15 -52 52 -9 30 -23 49 -49 66 -36 23 -41 23 -286 25 -137 0 -250 -1 -252 -4 -2 -3 -59 -6 -127 -8 l-123 -3 -35 -33 c-19 -18 -75 -66 -123 -106 -117 -97 -129 -122 -161 -331 -30 -196 -43 -503 -52 -1179 l-6 -455 27 -135 c15 -74 33 -171 40 -215 7 -44 14 -75 15 -70 8 34 -5 193 -21 261 -17 70 -18 108 -14 295 5 210 18 380 35 449 4 19 27 105 49 190 23 85 60 225 82 310 46 173 66 232 132 372 63 135 128 232 163 246 39 14 468 40 794 47 146 3 452 11 680 16 528 14 2203 18 2765 7 1027 -19 1794 -45 1893 -64 28 -6 75 -77 157 -240 75 -148 150 -374 204 -619 11 -49 34 -142 51 -205 55 -208 79 -635 45 -783 -8 -35 -24 -152 -35 -260 -23 -220 -26 -241 -68 -417 -39 -161 -74 -259 -123 -340 -48 -81 -59 -126 -33 -133 11 -3 109 -9 219 -12 243 -7 397 -21 441 -40 25 -10 34 -21 39 -47 9 -45 -35 -338 -50 -338 -2 0 -15 4 -30 10 -14 5 -90 17 -168 25 -438 46 -489 50 -515 36 -47 -25 -14 -55 53 -49 17 2 30 -1 30 -7 0 -10 -106 -13 -159 -5 -32 6 -23 22 -102 -180 -137 -351 -367 -868 -458 -1030 -59 -103 -140 -158 -291 -198 -119 -32 -424 -55 -1090 -82 -309 -13 -2162 -12 -2340 0 -71 5 -240 14 -375 20 -135 5 -303 16 -375 24 -71 8 -176 18 -233 21 -209 12 -334 76 -430 221 -6 10 1 -8 17 -42 34 -71 32 -68 148 -138 100 -60 87 -58 348 -76 88 -6 234 -17 325 -25 510 -45 520 -45 1842 -44 700 0 1305 2 1343 5 39 3 185 9 325 14 261 8 453 33 503 64 12 7 64 31 115 51 58 24 97 46 104 59 6 12 29 43 51 69 60 72 180 300 263 502 73 175 104 246 245 560 l67 150 63 -2 c35 -1 193 -5 350 -9 285 -6 286 -6 292 15 3 13 13 21 26 21 19 0 20 -3 11 -20 -10 -18 -8 -20 18 -20 19 0 39 12 65 38 l37 38 0 99 c0 100 8 133 29 121 7 -5 11 4 11 24 0 24 -4 30 -17 28 -15 -2 -20 8 -27 59 -7 43 -15 64 -25 68 -15 4 -279 24 -553 41 -127 8 -128 9 -74 107 32 59 98 210 110 252 8 28 52 272 70 385 8 52 25 198 36 325 12 126 26 235 31 241 7 8 6 14 -1 19 -7 4 -8 29 -3 73 8 82 9 67 -12 292 -9 102 -18 268 -21 370 -2 102 -6 212 -9 245 -2 33 -7 191 -10 352 -6 272 -8 296 -29 350 -12 32 -36 92 -52 133 -32 84 -34 86 -124 137 -36 20 -90 50 -120 67 -30 17 -80 36 -110 42 -65 13 -470 17 -470 4z m-5070 -72 c65 -45 74 -56 62 -71 -9 -11 -48 -16 -160 -21 -157 -7 -278 -21 -327 -37 -53 -17 -107 -62 -136 -114 -19 -34 -41 -57 -64 -68 -94 -45 -254 -356 -296 -574 -6 -35 -16 -63 -20 -63 -12 0 -11 229 1 370 6 63 22 182 37 263 14 81 23 150 20 153 -10 10 -27 -7 -49 -49 -37 -74 -58 -158 -79 -322 -21 -169 -37 -552 -25 -601 l8 -29 19 37 c32 63 37 51 13 -35 -13 -45 -28 -101 -34 -124 -6 -24 -15 -43 -20 -43 -21 0 -15 421 10 740 25 309 40 367 123 457 50 54 101 85 188 113 104 33 175 39 449 37 223 -2 259 -4 280 -19z m5605 -8 c139 -45 226 -104 264 -180 69 -134 84 -264 75 -626 -5 -206 -4 -298 5 -346 10 -51 10 -74 1 -109 -12 -41 -13 -42 -21 -20 -16 40 -24 201 -10 201 8 0 11 63 11 230 0 237 -10 377 -36 489 -16 69 -67 183 -92 203 -13 11 -14 7 -9 -37 3 -28 17 -117 31 -198 27 -155 50 -400 44 -477 l-3 -45 -20 35 c-11 19 -35 76 -53 125 -84 230 -233 478 -276 462 -12 -5 -23 8 -42 46 -64 128 -110 145 -411 155 -165 6 -195 10 -210 25 -17 16 -16 19 13 48 43 43 90 48 404 45 243 -3 271 -5 335 -26z"/>
<path d="M3456 5433 c-13 -13 -4 -23 32 -32 40 -12 968 -15 1034 -5 24 4 38 13 41 25 5 19 -9 19 -548 19 -304 -1 -555 -4 -559 -7z"/>
<path d="M1378 4930 c-20 -11 -49 -35 -63 -54 -33 -43 -105 -204 -105 -235 l0 -23 183 8 c100 5 230 7 288 6 107 -3 140 6 99 28 -17 9 -20 21 -20 83 0 91 -7 117 -31 117 -16 0 -19 -8 -19 -49 0 -26 5 -63 11 -80 15 -43 1 -60 -36 -43 -20 10 -31 8 -59 -9 -48 -28 -100 -23 -104 10 -7 48 9 151 28 173 17 22 26 23 216 29 110 3 206 8 214 10 13 3 15 -16 15 -129 l0 -133 89 5 c49 3 90 7 92 9 2 2 7 60 10 130 l7 127 1816 -2 c1605 -3 1816 -5 1818 -18 1 -8 7 -68 14 -132 l12 -118 81 1 c90 1 215 15 176 19 -14 1 -29 3 -35 5 -5 1 -17 3 -26 3 -20 2 -33 102 -23 175 l7 47 193 0 c106 0 204 -4 219 -10 35 -13 57 -69 59 -150 1 -62 0 -65 -24 -69 -14 -1 -49 3 -79 10 l-53 13 6 63 c4 34 4 74 0 88 -9 35 -41 33 -48 -2 -3 -16 -11 -56 -17 -91 -8 -43 -18 -67 -32 -77 -16 -11 -17 -15 -6 -19 11 -4 295 -20 524 -29 52 -3 56 17 17 96 -17 34 -37 78 -45 98 -18 44 -71 105 -108 125 -24 12 -372 14 -2626 14 -2554 -1 -2599 -1 -2635 -20z m-14 -100 c-10 -16 -20 -28 -22 -26 -4 5 28 56 35 56 2 0 -4 -13 -13 -30z"/>
<path d="M1340 4589 c-52 -4 -183 -10 -290 -13 -255 -8 -281 -11 -329 -35 -36 -19 -61 -54 -47 -68 3 -3 29 5 58 18 53 24 53 24 568 30 283 4 795 7 1137 8 l622 1 3 -132 3 -133 946 -3 946 -2 5 123 c3 68 8 130 13 137 6 10 219 11 1127 6 l1119 -6 63 -25 c82 -33 90 -32 72 4 -29 55 -73 64 -351 74 -383 13 -597 13 -995 0 -241 -9 -907 -13 -1955 -13 -1508 -1 -2206 8 -2430 30 -110 10 -144 10 -285 -1z"/>
<path d="M830 4200 c-112 -3 -183 -9 -197 -17 -31 -18 -63 -62 -63 -86 0 -19 3 -18 33 10 17 18 46 37 62 44 24 10 720 13 3250 14 1771 0 3271 -2 3333 -5 106 -6 115 -8 158 -39 51 -36 66 -34 44 6 -21 36 -59 63 -106 73 -41 10 -6193 10 -6514 0z"/>
<path d="M720 4081 c-36 -4 -74 -12 -86 -18 -30 -17 -94 -90 -94 -108 0 -19 1 -19 89 5 199 55 22 53 3391 53 l3105 0 121 -22 c67 -11 141 -28 164 -36 47 -17 80 -19 80 -7 0 15 -71 100 -98 119 -26 17 -162 18 -3317 19 -1809 1 -3319 -2 -3355 -5z"/>
<path d="M698 3938 c-18 -14 -25 -59 -58 -398 -31 -304 -36 -333 -60 -349 -21 -14 -26 -57 -11 -95 6 -16 17 -2 56 70 26 49 54 96 62 105 11 13 15 57 17 180 4 195 17 266 52 279 14 6 74 13 135 16 l110 7 -3 86 -3 86 -75 6 c-41 4 -104 10 -140 14 -48 5 -69 3 -82 -7z"/>
<path d="M7200 3940 c-14 -4 -58 -8 -97 -9 l-73 -1 0 -90 c0 -79 2 -90 18 -91 9 0 58 -1 107 -2 157 -3 168 -23 169 -289 1 -145 4 -179 17 -195 9 -10 37 -55 64 -101 26 -46 51 -80 55 -75 10 10 19 74 13 91 -3 6 -11 12 -18 12 -20 0 -34 51 -50 189 -39 338 -55 489 -55 518 0 22 -6 36 -19 43 -23 12 -94 12 -131 0z"/>
<path d="M624 3922 c-23 -15 -42 -70 -58 -167 -9 -55 -28 -146 -42 -203 l-25 -103 28 -110 c15 -60 30 -109 35 -109 11 0 23 96 63 489 8 80 18 160 21 178 6 32 0 40 -22 25z"/>
<path d="M1045 3920 c-8 -13 -17 -122 -11 -144 l6 -24 2547 0 c1402 0 2742 -1 2978 -2 l430 -2 -1 26 c0 14 -1 54 -2 89 l-2 62 -2971 0 c-1634 0 -2972 -2 -2974 -5z"/>
<path d="M7384 3878 c4 -24 16 -127 27 -229 28 -271 46 -400 57 -411 12 -12 15 -3 38 123 17 95 17 98 -4 190 -12 52 -33 150 -47 218 -25 125 -36 151 -63 151 -12 0 -13 -8 -8 -42z"/>
<path d="M1222 3713 c-31 -4 -33 -6 -30 -41 l3 -37 65 3 c96 4 98 0 66 -102 -14 -47 -31 -88 -36 -91 -5 -3 -23 21 -40 55 -17 33 -35 60 -40 60 -13 0 -11 13 -21 -130 -4 -69 -11 -146 -15 -171 l-6 -46 44 -7 c25 -4 68 -16 97 -26 70 -27 74 -26 51 20 -26 50 -26 92 0 115 11 10 20 30 20 45 0 29 55 90 81 90 25 0 30 12 13 32 -14 14 -16 31 -11 90 5 55 2 78 -9 92 -7 11 -14 24 -14 29 0 5 65 7 150 5 123 -2 152 -6 166 -20 20 -20 14 -50 -19 -99 -18 -27 -31 -35 -62 -39 -36 -5 -40 -8 -48 -43 -13 -56 -5 -67 49 -67 35 0 56 -7 80 -25 39 -30 51 -31 59 -5 8 24 -9 56 -36 70 -29 16 -21 52 14 64 23 8 30 7 43 -12 25 -36 52 -28 59 16 3 20 8 47 11 60 4 22 3 22 -51 16 -31 -4 -55 -3 -55 2 0 5 14 26 31 47 l30 37 114 0 c62 0 121 -3 130 -6 29 -12 45 -60 45 -138 l0 -75 -52 -25 c-29 -15 -74 -42 -100 -60 -26 -19 -52 -36 -57 -38 -6 -1 -14 -50 -18 -108 l-8 -105 -110 -3 c-107 -3 -111 -2 -158 27 -56 37 -62 56 -13 47 43 -8 52 5 23 31 -19 18 -79 53 -89 53 -9 0 -6 -110 3 -116 17 -10 -2 -24 -35 -24 -18 0 -44 -8 -57 -18 -19 -14 -46 -19 -129 -21 -99 -2 -161 -13 -186 -32 -6 -5 -38 -6 -70 -3 -44 5 -62 3 -71 -7 -6 -8 -16 -54 -22 -104 -11 -93 -65 -353 -100 -490 -25 -96 -25 -92 -1 -105 23 -12 224 -44 390 -61 101 -10 120 -10 146 4 27 14 490 357 557 413 48 40 113 22 88 -24 -12 -22 -116 -116 -241 -218 -130 -105 -270 -227 -270 -235 0 -3 84 -9 188 -13 103 -4 261 -11 352 -17 260 -14 380 -12 380 6 0 20 26 30 43 18 6 -6 64 -10 127 -10 64 0 125 -3 137 -7 12 -4 31 -1 43 6 18 11 23 10 41 -12 17 -23 20 -23 32 -9 9 13 27 16 72 14 168 -7 373 -8 384 -1 14 9 41 -11 41 -30 0 -22 21 -16 27 7 5 17 11 19 42 15 20 -4 107 -8 195 -10 149 -4 159 -6 173 -26 13 -19 13 -24 2 -31 -8 -4 -23 -6 -34 -3 -11 2 -344 9 -740 15 -396 5 -776 14 -845 19 -69 4 -187 9 -263 9 -184 1 -424 20 -467 36 -97 37 -137 45 -280 60 -85 9 -204 26 -264 37 -106 20 -110 20 -123 2 -17 -23 -17 -56 1 -99 8 -18 31 -82 51 -142 21 -59 80 -225 132 -368 53 -143 115 -312 138 -375 97 -266 302 -724 355 -796 19 -26 45 -64 58 -85 38 -62 140 -100 323 -119 120 -12 516 -35 894 -52 381 -17 2023 -17 2465 0 570 22 921 48 1035 77 112 28 135 41 170 93 14 20 43 61 64 89 21 29 62 106 91 170 29 65 73 161 96 214 24 53 71 168 103 255 33 88 80 213 106 279 25 66 93 251 151 410 57 160 113 314 124 343 37 100 19 131 -64 112 -66 -15 -223 -37 -383 -54 -110 -12 -152 -21 -187 -40 -57 -30 -95 -34 -451 -46 -159 -6 -376 -15 -480 -20 -287 -14 -1450 -16 -1449 -1 1 6 2 17 3 25 1 18 30 29 45 17 6 -5 60 -8 121 -6 411 15 435 15 435 3 0 -8 5 -5 11 4 13 23 45 23 59 1 10 -17 12 -16 26 4 21 30 32 29 44 -2 5 -14 14 -25 20 -25 6 0 15 11 20 25 12 31 23 31 50 3 20 -21 22 -22 34 -7 10 14 38 18 164 21 144 5 154 4 163 -15 11 -19 11 -19 22 4 18 34 36 34 48 0 14 -38 27 -40 35 -3 4 15 12 30 17 34 16 10 37 -3 37 -23 0 -18 9 -19 128 -19 70 0 197 4 282 9 85 6 237 13 338 17 157 6 181 9 170 21 -6 8 -90 80 -186 160 -96 80 -211 181 -255 223 -82 78 -82 78 -63 99 11 12 24 21 31 21 15 0 504 -362 578 -427 45 -40 50 -40 286 -13 179 21 196 23 269 42 40 10 43 13 37 37 -4 14 -17 78 -30 141 -13 63 -37 171 -54 240 -16 69 -32 152 -36 185 -11 108 -7 102 -82 110 -38 4 -72 11 -78 15 -5 5 -71 13 -145 19 -147 12 -213 27 -236 52 -8 9 -17 39 -21 68 -3 28 -10 51 -14 51 -5 0 -24 -8 -44 -17 -39 -19 -48 -52 -15 -60 29 -8 25 -19 -17 -48 -34 -22 -48 -25 -131 -25 -130 0 -132 1 -132 108 0 48 -4 92 -8 98 -4 6 -25 20 -47 32 -22 11 -50 33 -62 50 -12 16 -34 32 -50 35 -97 21 -92 21 -103 -8 -12 -33 -11 -91 4 -174 l11 -64 60 -1 c65 -1 118 -22 123 -47 2 -13 -13 -18 -80 -27 -162 -23 -185 -17 -223 57 -26 52 -55 242 -55 361 0 56 2 61 18 54 9 -4 46 -8 82 -8 l65 -1 3 -47 c2 -32 8 -48 16 -48 19 0 26 23 26 86 0 46 4 59 26 81 21 21 32 24 62 20 20 -3 60 -2 87 3 45 7 47 8 15 10 -19 1 -118 2 -220 2 l-185 -1 -22 -26 c-29 -33 -30 -79 -4 -211 11 -55 22 -121 26 -149 13 -107 32 -151 82 -192 l46 -38 356 4 c345 3 526 -4 501 -19 -17 -11 -387 -12 -2987 -12 -1707 0 -2276 3 -2290 12 -14 9 -7 10 40 6 31 -2 57 -1 57 3 0 19 49 26 143 20 56 -4 216 -10 355 -12 249 -5 253 -5 277 16 13 12 26 33 30 47 l6 25 -25 -28 -26 -28 -117 8 c-117 8 -118 8 -118 33 0 22 7 27 50 38 28 7 67 11 87 10 l36 -3 13 96 c9 75 9 111 0 156 -6 32 -8 80 -5 106 7 48 7 48 38 41 17 -4 53 -7 80 -6 l49 2 -7 -127 c-4 -71 -10 -139 -13 -153 -3 -14 -3 -22 1 -18 4 3 20 57 34 120 37 160 34 245 -9 268 -20 11 -1066 23 -1137 13z m448 -1553 c168 -12 716 -26 1625 -41 539 -10 847 -10 1330 -1 347 7 781 14 965 18 184 3 421 9 525 14 570 28 728 32 782 20 103 -23 109 -71 38 -315 -108 -372 -237 -703 -397 -1018 -138 -271 -144 -273 -823 -303 -985 -44 -2382 -44 -3375 0 -409 18 -483 23 -573 42 -105 22 -162 55 -203 120 -48 75 -208 415 -277 589 -111 280 -227 640 -243 757 -11 83 0 98 96 132 20 7 359 -2 530 -14z"/>
<path d="M1620 1722 c-19 -2 -41 -8 -47 -14 -18 -14 -16 -78 3 -108 9 -15 12 -17 8 -5 -4 11 -8 40 -8 65 l-1 45 140 -4 c77 -1 146 -8 153 -13 9 -8 12 -6 12 6 0 9 -6 19 -12 21 -18 6 -205 11 -248 7z"/>
<path d="M6234 1721 c-39 -3 -79 -12 -88 -20 -26 -22 -38 -49 -31 -71 11 -34 25 -22 25 20 0 24 5 43 13 45 6 3 73 6 148 9 l137 4 11 -25 c6 -14 9 -35 6 -47 -5 -21 -5 -21 6 1 6 12 9 32 5 46 -11 45 -56 52 -232 38z"/>
<path d="M2996 1668 c-24 -38 -51 -237 -29 -214 6 6 21 98 26 166 1 14 10 30 21 35 20 11 24 27 7 33 -5 2 -16 -7 -25 -20z"/>
<path d="M3290 1680 c0 -7 250 -10 743 -9 411 0 733 4 722 9 -30 12 -1465 13 -1465 0z"/>
<path d="M4875 1680 c-4 -6 5 -10 20 -10 15 0 24 4 20 10 -3 6 -12 10 -20 10 -8 0 -17 -4 -20 -10z"/>
<path d="M5000 1671 c13 -25 33 -28 28 -4 -2 10 -11 19 -21 21 -16 3 -17 1 -7 -17z"/>
<path d="M1895 1619 c12 -96 13 -124 5 -140 -7 -11 -5 -21 4 -28 22 -19 27 26 12 113 -13 77 -29 117 -21 55z"/>
<path d="M6412 1523 c-6 -20 -10 -39 -7 -41 5 -5 35 53 35 68 0 24 -17 7 -28 -27z"/>
<path d="M1600 1503 c0 -11 9 -31 20 -44 l20 -24 -12 35 c-14 44 -28 61 -28 33z"/>
<path d="M5056 1464 c2 -22 9 -52 14 -69 8 -25 9 -19 6 29 -3 32 -9 63 -15 69 -6 6 -8 -4 -5 -29z"/>
<path d="M6381 1416 c-6 -16 -10 -37 -8 -45 3 -11 8 -7 16 13 6 16 10 37 8 45 -3 11 -8 7 -16 -13z"/>
<path d="M1645 1363 c9 -20 18 -39 20 -42 10 -9 5 41 -5 60 -19 34 -31 20 -15 -18z"/>
<path d="M6091 1351 c-8 -31 -24 -62 -37 -74 -29 -25 -30 -37 -4 -37 26 0 62 79 58 128 -3 37 -3 37 -17 -17z"/>
<path d="M1930 1314 c0 -16 43 -60 76 -77 32 -16 130 -29 117 -16 -5 5 -31 12 -58 15 -40 5 -58 14 -92 47 -24 23 -43 36 -43 31z"/>
<path d="M1677 1297 c-10 -27 54 -227 73 -227 12 0 7 39 -10 70 -6 12 -22 56 -34 97 -14 48 -25 70 -29 60z"/>
<path d="M6339 1284 c-10 -28 -5 -44 10 -28 5 5 12 19 16 32 9 32 -13 28 -26 -4z"/>
<path d="M2908 1261 c-28 -39 -35 -61 -20 -61 15 0 50 45 57 73 10 38 -5 33 -37 -12z"/>
<path d="M5090 1277 c0 -21 33 -67 47 -67 13 0 12 5 -8 28 -13 15 -27 31 -31 37 -5 5 -8 6 -8 2z"/>
<path d="M5935 1233 c-43 -11 -39 -24 5 -17 66 10 94 23 50 22 -19 0 -44 -2 -55 -5z"/>
<path d="M2648 1199 c-6 -4 30 -9 81 -11 87 -3 125 2 105 15 -14 7 -172 4 -186 -4z"/>
<path d="M5242 1203 c-79 -7 -34 -18 62 -15 56 2 94 7 91 13 -6 9 -65 10 -153 2z"/>
<path d="M6311 1201 c-8 -5 -18 -31 -22 -58 -9 -60 -34 -136 -60 -186 -11 -21 -18 -41 -15 -46 3 -4 -8 -24 -24 -43 -28 -34 -32 -36 -89 -34 -33 2 -58 -1 -55 -6 6 -10 1 -10 -96 -13 -41 -1 -80 2 -87 7 -7 5 -18 6 -25 2 -7 -4 -28 -11 -48 -15 -19 -4 38 -7 131 -8 175 -1 250 11 281 46 9 10 32 65 53 123 21 58 46 127 57 153 22 55 21 92 -1 78z"/>
<path d="M3614 1159 l-16 -32 26 7 c14 3 184 7 378 7 302 1 358 -1 390 -15 47 -20 48 -20 48 3 0 37 -59 43 -592 56 l-217 5 -17 -31z"/>
<path d="M3588 1115 c-3 -6 -11 -45 -18 -87 -10 -62 -10 -81 0 -93 30 -36 38 -17 33 78 -5 104 -7 115 -15 102z"/>
<path d="M1750 1039 c0 -12 10 -42 23 -68 13 -25 22 -51 20 -58 -8 -22 17 -52 65 -80 47 -28 48 -28 260 -31 116 -2 212 0 212 5 0 4 -93 9 -208 10 -245 2 -260 6 -297 79 -14 27 -25 57 -25 67 0 18 -37 97 -45 97 -3 0 -5 -9 -5 -21z"/>
<path d="M4414 936 c-13 -9 -52 -16 -100 -19 l-79 -3 90 -2 c90 -2 121 6 114 27 -3 8 -11 7 -25 -3z"/>
<path d="M3808 913 c12 -2 32 -2 45 0 12 2 2 4 -23 4 -25 0 -35 -2 -22 -4z"/>
<path d="M4130 913 c-87 -6 -88 -7 -88 -63 0 -28 4 -53 9 -56 5 -3 9 20 9 50 l0 56 58 -6 c43 -4 62 -2 77 10 l20 15 -20 -1 c-11 -1 -40 -3 -65 -5z"/>
<path d="M3922 903 c9 -2 19 -14 21 -26 3 -20 4 -21 12 -3 9 20 -8 36 -35 35 -11 -1 -11 -2 2 -6z"/>
<path d="M3940 826 c0 -14 5 -26 10 -26 6 0 10 9 10 19 0 11 -4 23 -10 26 -6 4 -10 -5 -10 -19z"/>
<path d="M3828 783 c18 -2 45 -2 60 0 15 2 0 4 -33 4 -33 0 -45 -2 -27 -4z"/>
<path d="M2414 3707 c-8 -21 13 -65 35 -72 17 -5 18 -10 10 -37 -5 -18 -6 -34 -3 -37 3 -3 312 -6 686 -6 686 -1 728 -3 669 -35 -14 -7 -21 -21 -21 -40 0 -36 74 -33 -635 -31 -612 1 -728 -4 -733 -31 -3 -17 37 -18 690 -20 l693 -3 5 -35 c6 -42 62 -115 105 -138 30 -16 82 -26 185 -37 l55 -6 -28 18 c-15 10 -26 22 -24 28 6 17 44 17 60 0 15 -14 83 -16 594 -20 318 -2 649 -2 736 2 154 6 157 6 157 28 0 13 -6 28 -14 34 -10 8 -206 11 -730 9 -485 -2 -716 0 -716 7 0 6 6 19 13 30 19 27 40 107 35 134 l-3 22 673 -1 c595 0 673 1 678 15 17 42 18 42 -707 43 -380 1 -693 3 -695 5 -3 2 9 10 25 17 23 9 116 11 393 7 200 -4 499 -3 666 0 l302 6 0 29 0 28 -197 0 c-132 0 -193 4 -183 10 8 5 99 10 203 10 l187 0 12 24 c6 14 8 32 5 40 -6 14 -163 16 -1592 16 -1309 0 -1587 -2 -1591 -13z m1294 -63 c148 -11 105 -25 -60 -20 -84 2 -155 5 -158 6 -10 4 56 18 91 19 20 0 77 -2 127 -5z m251 -10 c5 -5 -70 -34 -89 -34 -24 0 -48 28 -29 34 8 2 21 7 29 9 14 5 81 -2 89 -9z m266 -4 c19 -5 23 -8 11 -9 -11 0 -34 -6 -51 -12 -35 -13 -70 -8 -100 15 -18 14 -15 15 45 14 36 0 79 -4 95 -8z m290 0 c4 -6 -33 -10 -105 -10 -72 0 -109 4 -105 10 3 6 50 10 105 10 55 0 102 -4 105 -10z m-1787 -7 c-15 -2 -42 -2 -60 0 -18 2 -6 4 27 4 33 0 48 -2 33 -4z m1306 -59 c18 -18 18 -17 10 -38 -9 -23 -41 -20 -54 5 -22 41 11 66 44 33z m-129 -67 c-10 -8 -23 -29 -29 -47 -14 -43 -36 -51 -36 -13 0 35 57 100 73 84 8 -8 6 -15 -8 -24z m263 -14 c7 -21 15 -46 19 -55 10 -33 -17 -18 -31 16 -8 18 -19 37 -25 40 -17 11 -13 36 7 36 11 0 22 -13 30 -37z m-194 -59 c-2 -47 -44 -135 -63 -132 -29 6 -25 68 9 121 33 52 56 57 54 11z m148 -38 c31 -65 31 -69 14 -82 -26 -19 -34 -11 -68 64 -27 63 -28 67 -11 79 9 7 21 12 25 11 5 -2 23 -34 40 -72z m-89 -63 c20 -72 20 -73 -17 -73 -46 0 -51 11 -25 54 23 40 35 45 42 19z"/>
<path d="M6160 3709 c0 -4 6 -9 13 -12 8 -3 24 -22 35 -41 26 -43 16 -52 -48 -43 l-39 5 6 -46 c5 -45 26 -82 45 -82 5 0 13 11 18 25 12 30 42 33 70 5 22 -22 17 -50 -10 -50 -21 0 -30 -19 -30 -61 0 -37 16 -37 66 1 29 22 50 30 83 30 l44 0 -7 38 c-3 20 -6 43 -6 50 0 7 -13 12 -32 12 -36 1 -53 11 -86 54 -28 36 -29 82 -3 96 11 5 79 10 152 10 73 0 129 3 125 7 -9 9 -396 11 -396 2z"/>
<path d="M6635 3713 c-35 -4 -42 -9 -59 -45 -16 -35 -17 -45 -6 -79 12 -34 11 -44 -4 -75 -17 -37 -9 -64 19 -64 15 0 75 -66 75 -82 0 -7 9 -31 21 -55 20 -41 20 -45 5 -90 -9 -26 -16 -50 -16 -55 0 -14 31 -9 64 11 17 10 48 22 68 25 23 4 39 14 43 24 4 14 -5 226 -16 357 0 6 -3 3 -7 -5 -20 -43 -75 -130 -83 -130 -4 0 -16 26 -24 58 -9 31 -21 70 -27 85 -6 15 -8 30 -6 33 3 3 34 8 69 12 63 7 64 7 67 40 l3 32 -53 0 c-29 0 -62 2 -73 4 -11 1 -38 1 -60 -1z"/>
<path d="M807 3700 c-21 -4 -43 -12 -50 -19 -8 -8 -12 -67 -12 -199 0 -198 18 -316 53 -344 11 -10 56 -13 164 -12 82 1 151 3 153 6 2 2 11 47 19 101 11 63 16 163 16 287 l0 190 -152 -1 c-84 -1 -170 -5 -191 -9z"/>
<path d="M6875 3623 c12 -164 23 -435 18 -452 -10 -38 23 -46 166 -43 189 3 184 0 207 130 33 183 22 416 -20 444 -6 4 -93 8 -194 8 l-184 0 7 -87z"/>
<path d="M2517 3521 c-44 -4 -71 -11 -77 -21 -13 -21 -12 -30 3 -30 6 0 307 0 666 0 678 0 675 0 668 39 -2 13 -89 15 -597 17 -327 1 -626 -1 -663 -5z"/>
<path d="M4280 3442 c-16 -5 -30 -22 -30 -34 0 -5 309 -8 686 -8 647 0 685 1 682 18 -3 14 -19 18 -108 24 -124 8 -1208 8 -1230 0z"/>
<path d="M2400 3346 c-6 -9 -9 -20 -5 -26 4 -7 230 -10 705 -10 l699 0 -8 23 -8 22 -685 3 c-592 2 -687 0 -698 -12z"/>
<path d="M4247 3353 c-4 -3 -7 -15 -7 -25 0 -17 28 -18 696 -18 l695 0 -3 23 -3 22 -686 3 c-377 1 -689 -1 -692 -5z"/>
<path d="M1735 3290 c-50 -24 -57 -30 -40 -36 11 -4 41 -15 66 -25 26 -10 50 -15 53 -12 11 11 6 69 -6 85 -12 14 -19 12 -73 -12z"/>
<path d="M6220 3291 c-13 -26 -13 -71 1 -71 21 0 119 31 119 38 0 9 -81 52 -97 52 -7 0 -17 -9 -23 -19z"/>
<path d="M2384 3266 c-3 -8 -4 -25 -2 -38 l3 -23 510 2 c1049 3 965 1 965 21 0 11 -8 26 -18 35 -17 16 -82 17 -736 17 -611 0 -717 -2 -722 -14z"/>
<path d="M699 3219 c-14 -19 -47 -70 -72 -115 -56 -96 -58 -122 -27 -308 44 -258 118 -466 166 -466 8 0 27 12 44 28 25 22 35 46 56 127 48 190 95 430 101 515 l6 85 -70 1 c-81 1 -139 18 -153 44 -6 10 -10 34 -11 52 0 18 -4 41 -8 52 -6 16 -10 14 -32 -15z"/>
<path d="M7291 3186 c-16 -74 -34 -87 -132 -97 -111 -11 -115 -15 -100 -121 7 -45 37 -193 67 -328 54 -242 55 -245 92 -278 20 -18 43 -31 52 -30 50 9 159 373 176 588 6 72 5 80 -29 153 -35 75 -94 167 -107 167 -4 0 -12 -24 -19 -54z"/>
<path d="M1160 3160 c0 -21 4 -30 13 -27 6 2 12 14 12 27 0 13 -6 25 -12 28 -9 2 -13 -7 -13 -28z"/>
<path d="M6855 3180 c-7 -12 2 -30 16 -30 12 0 12 27 0 35 -5 3 -12 1 -16 -5z"/>
<path d="M2344 3157 c-4 -11 -1 -23 7 -28 8 -5 750 -9 1677 -8 1288 0 1662 3 1662 12 -1 44 84 42 -1679 43 -1643 1 -1661 1 -1667 -19z"/>
<path d="M520 2983 c2 -197 43 -369 165 -698 14 -38 23 -75 21 -82 -4 -10 -75 -13 -330 -13 -179 0 -327 -4 -330 -8 -2 -4 -7 -37 -10 -72 -5 -51 -4 -58 4 -34 6 19 22 37 42 47 43 22 202 37 396 38 155 1 265 9 277 21 8 8 -18 85 -54 156 -65 130 -120 336 -141 532 -6 58 -13 115 -16 128 -7 36 -24 25 -24 -15z"/>
<path d="M6090 2619 c30 -27 100 -87 154 -132 55 -45 134 -112 177 -149 76 -67 99 -77 129 -58 18 12 8 22 -211 189 -237 182 -374 264 -249 150z"/>
<path d="M1897 2615 c-31 -19 -131 -90 -220 -157 -90 -68 -176 -133 -193 -145 -24 -19 -27 -24 -14 -32 36 -25 56 -13 230 139 41 36 113 96 160 132 129 99 146 129 37 63z"/>
<path d="M50 1965 c0 -43 23 -191 32 -200 6 -6 8 3 4 25 -3 19 -8 64 -11 100 -6 64 -24 120 -25 75z"/>
<path d="M758 1824 c-4 -3 -100 -14 -215 -24 -269 -25 -293 -28 -386 -48 l-78 -16 7 -31 c3 -16 8 -31 9 -33 2 -2 99 -3 217 -3 172 1 238 5 341 23 78 13 126 26 124 32 -2 6 -13 12 -25 14 -23 4 -31 32 -9 32 7 0 30 -12 51 -26 50 -34 68 -20 36 28 -34 49 -58 66 -72 52z m-228 -106 c-54 -15 -390 -23 -390 -9 0 7 55 11 172 14 95 1 191 3 213 4 l40 1 -35 -10z"/>
<path d="M871 1746 c-10 -12 -8 -15 10 -18 19 -3 42 -53 169 -363 98 -243 181 -428 254 -570 60 -116 113 -214 118 -220 12 -13 -36 97 -147 340 -129 282 -176 391 -266 616 -44 112 -86 210 -91 217 -14 16 -33 15 -47 -2z"/>
</g>
<g id="layer104" fill="#e88943" stroke="none">
<path d="M6630 5590 c0 -5 -39 -9 -87 -8 -151 2 -139 7 -154 -67 l-13 -65 -145 -1 c-80 -1 -154 -2 -163 -2 -10 0 -18 -4 -18 -9 0 -5 -14 -15 -31 -22 -28 -12 -10 -14 162 -18 222 -5 351 0 343 13 -3 5 -27 9 -53 9 -49 0 -71 12 -71 40 0 23 41 59 80 70 51 15 594 15 655 1 81 -19 209 -88 253 -135 51 -56 100 -181 114 -295 6 -47 10 -225 9 -396 0 -173 3 -328 9 -350 10 -41 -4 -150 -21 -169 -13 -15 -11 -58 5 -104 8 -23 20 -83 26 -134 17 -144 30 -525 19 -577 -5 -26 -13 -68 -19 -96 -5 -27 -19 -135 -29 -240 -19 -185 -79 -499 -106 -560 -43 -94 -77 -165 -100 -205 -14 -25 -25 -55 -25 -67 0 -20 5 -23 35 -23 19 0 35 5 35 10 0 6 -7 10 -15 10 -24 0 -17 37 19 103 32 59 98 210 110 252 8 28 52 272 70 385 8 52 25 198 36 325 12 126 26 235 31 241 7 8 6 14 -1 19 -7 4 -8 29 -3 73 8 82 9 66 -11 292 -9 102 -19 248 -21 325 -3 77 -5 142 -6 145 -6 54 -5 70 1 70 5 0 5 13 0 29 -4 16 -8 91 -9 168 0 76 -4 224 -7 328 -6 204 -5 200 -87 405 -25 63 -30 68 -117 117 -36 20 -90 50 -120 67 -30 17 -80 36 -110 42 -65 13 -470 17 -470 4z"/>
<path d="M5647 5443 c-39 -3 -48 -7 -45 -21 3 -14 15 -17 63 -17 55 0 60 2 63 23 3 16 -1 22 -15 20 -10 -1 -40 -3 -66 -5z"/>
<path d="M831 3700 c-29 -5 -58 -13 -65 -20 -7 -7 -12 -73 -14 -192 -3 -143 0 -196 13 -249 26 -107 20 -103 190 -107 116 -3 149 -1 156 10 5 7 9 60 9 118 0 58 7 150 15 205 8 55 15 133 15 173 l0 72 -132 -1 c-73 -1 -157 -5 -187 -9z"/>
<path d="M6884 3695 c-7 -17 14 -529 22 -550 11 -27 316 -14 333 14 4 7 16 64 26 126 19 125 17 323 -5 381 -10 30 -14 32 -78 38 -37 3 -118 6 -180 6 -90 0 -114 -3 -118 -15z"/>
</g>
<g id="layer105" fill="#989796" stroke="none">
<path d="M6630 5590 c0 -5 -39 -9 -87 -8 -151 2 -139 7 -154 -67 l-13 -65 -145 -1 c-80 -1 -154 -2 -163 -2 -10 0 -18 -4 -18 -9 0 -5 -14 -15 -31 -22 -28 -12 -10 -14 162 -18 222 -5 351 0 343 13 -3 5 -27 9 -53 9 -49 0 -71 12 -71 40 0 23 41 59 80 70 51 15 594 15 655 1 81 -19 209 -88 253 -135 51 -56 100 -181 114 -295 6 -47 10 -225 9 -396 0 -173 3 -328 9 -350 10 -41 -4 -150 -21 -169 -13 -15 -11 -58 5 -104 8 -23 20 -83 26 -134 17 -144 30 -525 19 -577 -5 -26 -13 -68 -19 -96 -5 -27 -19 -135 -29 -240 -19 -185 -79 -499 -106 -560 -43 -94 -77 -165 -100 -205 -14 -25 -25 -55 -25 -67 0 -20 5 -23 35 -23 19 0 35 5 35 10 0 6 -7 10 -15 10 -24 0 -17 37 19 103 32 59 98 210 110 252 8 28 52 272 70 385 8 52 25 198 36 325 12 126 26 235 31 241 7 8 6 14 -1 19 -7 4 -8 29 -3 73 8 81 9 66 -10 288 -9 100 -19 242 -22 315 -4 74 -8 155 -10 182 -1 26 1 47 5 47 5 0 5 13 0 29 -4 16 -8 91 -9 168 0 76 -4 224 -7 328 -6 204 -5 200 -87 405 -25 63 -30 68 -117 117 -36 20 -90 50 -120 67 -30 17 -80 36 -110 42 -65 13 -470 17 -470 4z"/>
<path d="M1065 5580 c-2 -3 -59 -6 -127 -8 l-123 -3 -35 -33 c-19 -18 -75 -66 -123 -106 -117 -97 -129 -122 -161 -331 -29 -193 -43 -487 -53 -1171 -6 -450 -6 -450 14 -440 19 10 20 24 26 214 6 198 21 322 51 423 16 54 69 257 111 425 14 58 33 128 41 156 9 28 15 59 13 69 -4 18 -19 -22 -61 -165 -20 -69 -22 -73 -29 -45 -21 92 -5 364 37 613 14 84 24 158 21 165 -6 19 -54 -73 -76 -148 -18 -62 -38 -200 -55 -375 -5 -52 -10 -350 -7 -415 l2 -30 25 43 c28 45 50 56 41 20 -20 -82 -77 -262 -85 -270 -38 -38 -16 749 28 1017 22 137 101 237 243 309 69 35 84 39 193 46 66 5 223 5 350 2 l231 -7 36 -30 c29 -24 36 -37 36 -67 1 -20 5 -39 9 -42 16 -10 352 7 368 19 13 9 8 11 -27 11 -81 1 -274 13 -295 19 -13 4 -24 21 -32 48 -9 30 -23 49 -49 66 -36 23 -41 23 -286 25 -137 0 -250 -1 -252 -4z"/>
<path d="M5647 5443 c-39 -3 -48 -7 -45 -21 3 -14 15 -17 63 -17 53 0 60 2 60 20 0 22 -7 23 -78 18z"/>
<path d="M2800 5432 c-14 -2 -28 -9 -32 -16 -10 -15 74 -22 225 -18 94 3 117 6 117 18 0 11 -22 14 -117 15 -65 1 -129 2 -143 3 -14 1 -36 0 -50 -2z"/>
<path d="M3517 5420 c-6 -24 -55 -22 458 -21 220 1 430 1 468 1 60 0 67 2 67 20 0 20 -6 20 -494 20 -483 -1 -494 -1 -499 -20z"/>
<path d="M4920 5421 c0 -25 18 -27 198 -23 141 4 152 6 152 23 0 18 -10 19 -175 19 -165 0 -175 -1 -175 -19z"/>
<path d="M2310 5415 c0 -13 11 -15 57 -13 81 4 85 28 4 28 -48 0 -61 -3 -61 -15z"/>
<path d="M2550 5414 l-25 -14 32 0 c25 0 31 4 27 15 -4 8 -7 15 -8 14 0 -1 -12 -7 -26 -15z"/>
<path d="M5445 5410 c-4 -6 6 -10 22 -10 22 0 25 2 13 10 -19 12 -27 12 -35 0z"/>
<path d="M1084 5358 c-33 -22 -58 -50 -77 -86 -20 -37 -40 -58 -68 -72 -42 -22 -90 -81 -139 -172 -50 -94 -17 -74 42 25 39 65 68 101 99 122 24 17 60 55 80 84 34 50 108 111 135 111 7 0 16 5 19 10 14 23 -46 8 -91 -22z"/>
<path d="M6952 5323 c44 -47 58 -73 58 -112 0 -32 6 -37 29 -22 33 21 -57 171 -102 171 -19 0 -17 -4 15 -37z"/>
<path d="M7350 5343 c0 -4 11 -66 25 -137 32 -164 52 -357 58 -561 l5 -160 -17 60 c-10 33 -22 70 -29 81 -6 12 -29 72 -51 133 -55 154 -159 360 -209 414 -45 47 -53 29 -12 -25 55 -73 181 -331 223 -458 36 -107 90 -311 102 -387 3 -22 13 -49 21 -60 14 -17 15 -15 9 17 -15 86 -17 167 -5 190 16 30 15 458 -1 590 -12 98 -41 197 -75 257 -24 41 -44 62 -44 46z"/>
<path d="M2910 5280 c-497 -11 -1487 -49 -1560 -60 -63 -9 82 -6 675 12 520 17 3467 17 3860 0 409 -17 831 -26 823 -17 -4 4 -100 11 -215 16 -114 4 -314 13 -443 19 -685 32 -2329 47 -3140 30z"/>
<path d="M3885 4929 c-33 -3 52 -6 189 -7 137 -1 246 1 242 5 -8 9 -347 10 -431 2z"/>
<path d="M5205 4930 c-13 -5 24 -9 105 -8 74 0 115 3 100 7 -36 11 -181 12 -205 1z"/>
<path d="M1479 4904 c-29 -8 -58 -27 -77 -48 -34 -39 -88 -145 -97 -192 l-6 -32 93 5 c51 2 98 6 104 8 6 2 14 40 19 86 4 46 13 103 21 126 14 40 12 64 -4 62 -4 0 -28 -7 -53 -15z"/>
<path d="M2009 4898 c-2 -13 -4 -72 -4 -133 l0 -110 81 -3 82 -3 12 100 c11 93 8 155 -9 165 -4 3 -22 -3 -40 -11 -33 -17 -37 -16 -102 11 -12 5 -17 1 -20 -16z"/>
<path d="M6520 4903 c-14 -3 -28 -8 -32 -11 -4 -4 2 -45 13 -92 12 -51 18 -100 15 -122 l-6 -38 111 0 111 0 -6 24 c-8 32 -102 194 -129 224 -20 22 -29 23 -77 15z"/>
<path d="M5847 4870 c-3 -12 -1 -62 4 -113 4 -51 9 -94 9 -97 0 -3 37 -5 81 -5 l82 0 -2 109 c-1 61 -4 113 -7 118 -3 4 -40 8 -83 8 -71 0 -79 -2 -84 -20z"/>
<path d="M6304 4758 c-22 -96 -22 -100 -9 -105 14 -4 51 165 38 178 -6 6 -16 -21 -29 -73z"/>
<path d="M3069 4553 c-2 -20 3 -278 5 -280 6 -6 1851 -13 1868 -7 16 5 18 18 18 112 0 59 4 121 9 139 7 25 6 33 -6 37 -22 9 -1893 7 -1894 -1z"/>
<path d="M2848 4543 c12 -2 30 -2 40 0 9 3 -1 5 -23 4 -22 0 -30 -2 -17 -4z"/>
<path d="M656 4185 c-45 -16 -61 -30 -71 -64 -7 -22 -5 -22 35 10 l42 34 3342 0 3343 0 51 -32 c29 -18 52 -28 52 -24 0 17 -35 50 -75 70 l-40 21 -3320 0 c-2807 -1 -3326 -3 -3359 -15z"/>
<path d="M740 4070 c-47 -3 -95 -11 -106 -18 -25 -13 -84 -79 -84 -92 0 -14 2 -14 136 19 69 18 161 32 219 35 172 10 3822 14 5105 6 l1225 -7 90 -27 c134 -39 145 -41 145 -24 0 7 -19 33 -43 56 l-43 42 -130 10 c-143 10 -6373 11 -6514 0z"/>
<path d="M722 3943 c-39 -7 -43 -30 -82 -458 -24 -265 -26 -272 -58 -302 -22 -20 -24 -27 -15 -55 l9 -33 39 70 c21 39 49 85 63 103 22 31 23 39 17 111 -6 68 8 288 21 333 7 24 32 29 163 37 l116 6 -2 75 c-1 41 -2 78 -2 83 -1 4 -25 7 -53 7 -29 0 -84 7 -123 15 -38 8 -70 14 -70 14 0 -1 -10 -4 -23 -6z"/>
<path d="M7185 3929 c-16 -5 -53 -9 -81 -7 -27 1 -56 -2 -62 -6 -13 -8 -16 -104 -6 -143 6 -22 11 -23 108 -23 118 0 143 -10 171 -65 17 -35 19 -62 20 -216 0 -172 1 -177 26 -215 14 -21 38 -60 53 -86 15 -27 31 -48 36 -48 16 0 11 29 -10 58 -20 27 -40 150 -55 337 -15 181 -47 410 -58 417 -16 10 -105 8 -142 -3z"/>
<path d="M616 3898 c-9 -13 -22 -60 -31 -103 -8 -44 -29 -139 -47 -211 l-32 -132 23 -98 c13 -55 27 -103 31 -107 4 -5 10 22 14 60 4 37 15 145 26 238 29 258 39 369 35 373 -2 2 -10 -7 -19 -20z"/>
<path d="M1043 3904 c-2 -6 -3 -41 -1 -78 l3 -67 2973 -2 2973 -2 -3 78 -3 79 -2969 1 c-2150 2 -2970 -1 -2973 -9z"/>
<path d="M7394 3863 c3 -27 13 -115 21 -198 22 -215 45 -387 54 -404 11 -19 31 69 38 164 4 51 -1 92 -15 150 -12 44 -30 132 -42 195 -12 63 -26 121 -32 128 -21 25 -31 12 -24 -35z"/>
<path d="M1204 3695 c-12 -31 4 -42 71 -47 37 -3 71 -10 75 -14 5 -5 -5 -56 -21 -114 -23 -81 -27 -110 -20 -127 13 -29 20 -29 62 0 57 38 75 76 82 168 l7 83 -32 33 c-32 33 -33 33 -125 33 -74 0 -95 -3 -99 -15z"/>
<path d="M1789 3703 c-11 -3 -14 -12 -11 -33 5 -38 22 -38 50 0 13 17 18 30 13 30 -5 0 -15 2 -23 4 -7 2 -20 2 -29 -1z"/>
<path d="M2120 3706 c0 -4 6 -19 14 -34 7 -15 16 -66 19 -114 l6 -87 -28 -6 c-15 -3 -65 -32 -111 -64 l-85 -57 -5 -105 -5 -104 -110 -3 c-107 -3 -112 -3 -167 28 -31 17 -60 40 -63 51 -4 10 -11 17 -16 13 -6 -4 -4 -13 5 -23 9 -10 16 -29 16 -44 0 -21 7 -28 38 -38 40 -12 556 -24 582 -13 21 9 -22 22 -81 23 -25 1 -67 4 -93 7 -39 6 -46 10 -46 29 0 12 6 27 13 32 16 14 143 37 156 29 21 -13 26 26 26 204 l0 185 85 -1 85 0 5 -55 5 -54 12 35 c14 42 12 106 -5 138 -12 20 -19 22 -110 22 -53 0 -107 3 -119 6 -13 4 -23 3 -23 0z"/>
<path d="M2475 3700 c-3 -6 5 -14 18 -19 19 -8 1246 -25 1517 -21 41 0 410 2 819 4 474 3 747 8 753 14 6 6 7 15 4 21 -10 15 -3102 16 -3111 1z"/>
<path d="M6190 3704 c0 -13 47 -70 53 -64 2 3 7 17 11 33 4 18 2 27 -6 27 -7 0 -23 3 -35 6 -13 4 -23 2 -23 -2z"/>
<path d="M6622 3703 c-7 -2 -23 -21 -36 -40 -23 -33 -23 -37 -9 -71 12 -28 13 -44 5 -70 -10 -33 -9 -36 39 -86 27 -28 49 -60 49 -72 0 -28 25 -61 34 -45 16 25 7 179 -14 242 -12 34 -18 65 -13 70 4 4 35 9 68 11 59 4 60 4 60 33 l0 30 -85 2 c-47 1 -91 -1 -98 -4z"/>
<path d="M5730 3693 c-35 -2 -70 -9 -77 -15 -24 -20 -9 -200 27 -303 9 -26 9 -23 5 20 -3 28 -8 92 -12 144 l-6 94 24 -8 c13 -5 53 -9 89 -9 l64 -1 9 -43 c9 -48 27 -47 27 2 0 18 6 54 14 79 l14 47 -56 -2 c-32 -1 -86 -3 -122 -5z"/>
<path d="M1826 3606 c-59 -9 -72 -16 -96 -45 -20 -23 -35 -32 -48 -29 -31 9 -52 -10 -52 -46 0 -43 8 -49 38 -30 25 17 31 14 95 -48 26 -26 47 -23 47 7 0 19 -10 31 -35 46 -42 25 -44 41 -9 68 34 27 52 26 81 -1 14 -13 27 -18 32 -12 7 8 25 106 18 103 -1 -1 -33 -7 -71 -13z"/>
<path d="M4020 3614 c0 -4 10 -22 21 -41 l22 -35 -25 -25 -25 -25 -21 30 c-12 16 -20 42 -19 58 2 32 -22 43 -57 25 -11 -6 -34 -15 -49 -21 -23 -8 -27 -14 -21 -33 3 -12 8 -24 10 -26 7 -7 34 22 34 36 0 30 26 5 39 -38 8 -28 22 -49 35 -55 26 -11 26 -40 -3 -113 -26 -68 -36 -79 -59 -65 -27 17 -26 58 3 114 25 50 27 80 5 80 -5 0 -17 -18 -26 -39 -10 -26 -23 -41 -40 -45 -60 -15 -8 -118 83 -164 46 -24 153 -41 153 -25 0 17 -23 30 -64 36 -50 8 -64 21 -45 43 7 9 18 25 24 37 5 11 15 22 21 24 12 4 34 -38 34 -65 0 -54 63 -56 112 -4 46 47 55 67 63 128 8 61 -7 104 -36 104 -23 0 -23 -5 2 -67 7 -18 10 -35 6 -39 -12 -13 -38 6 -48 36 -6 16 -15 30 -20 30 -21 0 -21 -34 1 -79 27 -58 24 -95 -8 -99 -19 -3 -27 6 -47 51 -14 30 -32 61 -40 67 -24 20 -18 30 30 51 39 17 45 24 45 50 0 24 3 29 18 25 9 -3 31 2 47 11 27 14 100 16 702 17 370 1 675 5 679 8 3 4 4 13 1 21 -5 12 -104 14 -660 12 -498 -2 -663 -6 -689 -15 -30 -11 -42 -11 -74 2 -47 19 -114 31 -114 22z"/>
<path d="M2947 3603 c-431 -3 -478 -5 -475 -19 3 -14 45 -17 368 -21 201 -2 506 -1 678 2 282 7 313 9 310 24 -4 18 -56 19 -881 14z"/>
<path d="M6137 3570 c9 -53 22 -65 45 -40 26 28 54 25 89 -9 37 -37 37 -50 -2 -58 -44 -9 -66 -73 -24 -73 7 0 32 18 56 39 40 38 43 39 65 24 21 -13 24 -14 30 0 3 8 4 30 2 49 -3 30 -6 33 -33 31 -23 -2 -39 7 -68 35 -36 35 -42 37 -101 37 l-64 0 5 -35z"/>
<path d="M1205 3538 c-2 -7 -6 -82 -8 -165 l-5 -153 41 -10 c23 -6 59 -18 81 -26 21 -8 41 -13 44 -10 2 3 -3 23 -12 46 -21 53 -20 73 4 95 27 24 25 38 -4 31 -22 -5 -28 2 -76 99 -29 58 -54 105 -57 105 -2 0 -5 -6 -8 -12z"/>
<path d="M6789 3503 c-6 -15 -18 -41 -26 -58 -9 -16 -19 -46 -24 -65 -4 -19 -20 -74 -35 -123 -15 -48 -24 -90 -20 -94 3 -4 19 3 34 14 15 11 47 24 71 28 23 4 44 12 47 19 2 6 1 76 -3 155 -8 148 -21 184 -44 124z m1 -198 c0 -14 -4 -25 -10 -25 -11 0 -14 33 -3 43 11 11 13 8 13 -18z"/>
<path d="M2481 3511 c-14 -4 -26 -12 -29 -19 -3 -9 135 -12 595 -14 712 -4 723 -3 723 23 0 19 -16 19 -632 18 -348 -1 -644 -4 -657 -8z"/>
<path d="M3805 3510 c-3 -6 -4 -18 -1 -28 13 -42 21 -41 -686 -44 -372 -2 -680 -6 -684 -10 -4 -5 -5 -11 -2 -14 3 -3 318 -5 700 -6 l693 0 6 34 c3 18 7 38 9 43 8 31 -19 50 -35 25z"/>
<path d="M4252 3513 c-10 -4 -10 -8 -1 -19 10 -12 116 -14 664 -14 358 0 655 3 658 7 4 3 2 12 -4 20 -9 11 -129 13 -658 12 -355 0 -652 -3 -659 -6z"/>
<path d="M5844 3457 c-2 -7 -1 -62 3 -122 l8 -110 50 -1 c86 -2 145 -31 145 -72 0 -5 -56 -15 -125 -22 -69 -7 -125 -17 -125 -21 0 -9 599 -2 640 7 25 6 25 6 5 21 -43 32 -52 33 -79 12 -25 -20 -34 -20 -141 -14 l-115 7 0 43 c0 23 -3 69 -6 102 -6 59 -8 62 -48 83 -22 13 -50 33 -61 45 -18 21 -101 55 -132 55 -8 0 -16 -6 -19 -13z"/>
<path d="M455 3430 c-10 -17 17 -152 28 -141 8 8 -9 151 -18 151 -2 0 -7 -5 -10 -10z"/>
<path d="M4270 3425 c-7 -8 -11 -15 -9 -15 43 -1 1330 -1 1344 0 20 1 20 1 1 15 -30 23 -1317 22 -1336 0z"/>
<path d="M2433 3352 c-44 -7 -25 -29 30 -36 77 -9 1315 -7 1321 2 19 31 -11 32 -670 35 -362 2 -669 1 -681 -1z"/>
<path d="M4333 3352 c-75 -3 -83 -5 -83 -22 0 -20 11 -20 669 -20 368 0 676 3 685 6 9 3 16 12 16 20 0 15 23 15 -780 18 -234 0 -462 0 -507 -2z"/>
<path d="M1113 3230 c0 -47 2 -66 4 -42 2 23 2 61 0 85 -2 23 -4 4 -4 -43z"/>
<path d="M1735 3285 c-31 -14 -44 -25 -35 -28 8 -3 37 -13 63 -22 27 -9 51 -14 54 -11 9 9 -10 79 -22 82 -5 1 -32 -8 -60 -21z"/>
<path d="M6226 3294 c-3 -9 -6 -27 -6 -40 0 -23 3 -24 38 -19 86 15 89 20 32 53 -46 26 -56 27 -64 6z"/>
<path d="M1570 3281 c0 -10 40 -46 67 -60 32 -17 42 7 12 30 -29 22 -79 41 -79 30z"/>
<path d="M6413 3269 c-18 -12 -33 -27 -33 -35 0 -17 3 -17 45 0 24 10 35 22 35 35 0 26 -7 26 -47 0z"/>
<path d="M4889 3273 c-585 -3 -688 -5 -699 -18 -6 -8 -9 -18 -6 -23 3 -5 318 -10 731 -10 712 -2 725 -1 725 18 0 20 -29 42 -52 38 -7 -2 -322 -4 -699 -5z"/>
<path d="M484 3234 c4 -22 13 -75 21 -119 l13 -80 0 70 c1 94 -10 157 -27 163 -11 4 -13 -3 -7 -34z"/>
<path d="M2392 3248 l3 -23 728 -3 c458 -2 727 1 727 7 0 5 -7 17 -16 25 -14 14 -94 16 -730 16 l-715 0 3 -22z"/>
<path d="M687 3191 c-13 -16 -44 -68 -68 -115 l-44 -85 19 -127 c22 -157 56 -299 96 -401 50 -130 73 -148 123 -95 21 22 34 56 56 148 43 177 89 410 97 485 l6 66 -91 11 c-49 6 -100 16 -111 22 -24 13 -40 49 -40 91 0 37 -12 37 -43 0z"/>
<path d="M7299 3174 c-20 -65 -49 -84 -148 -96 -57 -8 -84 -15 -88 -26 -13 -32 52 -375 118 -624 11 -42 54 -88 81 -88 48 0 143 292 178 544 9 72 8 86 -10 142 -21 63 -89 185 -107 191 -5 2 -16 -18 -24 -43z"/>
<path d="M5619 3175 c-3 -2 -739 -5 -1637 -5 -1604 -1 -1632 -2 -1632 -21 0 -22 -152 -20 1965 -20 1258 -1 1365 0 1365 9 -1 21 -49 50 -61 37z"/>
<path d="M1495 3140 c-4 -6 8 -10 30 -10 22 0 34 4 30 10 -3 6 -17 10 -30 10 -13 0 -27 -4 -30 -10z"/>
<path d="M6495 3130 c-4 -6 6 -10 22 -10 22 0 25 2 13 10 -19 12 -27 12 -35 0z"/>
<path d="M1022 3068 c-7 -7 -12 -30 -12 -52 0 -63 -46 -307 -97 -509 -18 -71 -23 -111 -17 -117 13 -13 122 -34 282 -54 146 -19 235 -20 265 -4 12 6 136 97 275 202 139 105 267 201 284 214 36 25 66 26 82 0 22 -35 8 -49 -363 -363 -110 -93 -137 -121 -124 -126 10 -3 135 -9 278 -13 143 -4 334 -11 425 -15 165 -8 190 -4 190 26 0 11 9 13 43 8 45 -6 249 -16 309 -15 25 0 40 -5 47 -17 9 -15 12 -16 20 -4 7 11 54 13 247 12 156 -2 243 -6 252 -13 9 -8 16 -8 23 -1 7 7 79 9 202 6 173 -5 194 -7 213 -25 20 -18 34 -19 168 -16 135 4 147 5 166 26 12 12 26 20 32 16 14 -9 441 -5 540 4 43 5 84 4 93 0 9 -6 24 -3 40 8 24 16 25 15 35 -10 11 -31 26 -34 33 -6 5 21 32 26 56 11 9 -6 22 -6 32 0 9 5 111 11 226 14 114 3 220 8 235 11 21 5 29 2 35 -12 10 -28 24 -35 63 -29 19 2 211 10 425 16 215 6 396 15 404 19 13 7 -1 20 -294 269 -49 42 -119 105 -155 139 l-65 64 28 24 c24 20 32 22 50 13 21 -11 194 -140 460 -344 156 -119 151 -116 222 -109 162 15 392 47 424 58 40 13 40 13 17 106 -9 36 -23 101 -32 145 -9 44 -27 123 -40 175 -12 52 -26 133 -29 180 l-7 85 -2896 0 c-1594 0 -2938 3 -2987 8 -67 5 -94 4 -103 -5z"/>
<path d="M530 2847 c0 -63 20 -160 36 -178 8 -9 12 -18 8 -21 -11 -12 24 -127 112 -366 30 -84 27 -93 -35 -94 -22 0 -41 -5 -41 -11 0 -6 19 -7 53 -3 28 3 60 6 71 6 26 0 16 43 -30 134 -50 97 -110 296 -134 443 -11 68 -20 125 -20 128 0 3 -4 5 -10 5 -5 0 -10 -19 -10 -43z"/>
<path d="M1764 2514 c-21 -15 -68 -50 -104 -79 -36 -28 -93 -71 -127 -94 -35 -23 -63 -46 -63 -51 0 -13 36 -13 61 1 40 21 284 238 276 245 -2 2 -21 -8 -43 -22z"/>
<path d="M6270 2491 c0 -5 54 -57 119 -114 92 -81 124 -104 140 -100 12 3 21 9 21 14 0 9 -219 177 -257 198 -13 6 -23 8 -23 2z"/>
<path d="M829 2313 c-7 -20 -6 -36 7 -67 9 -23 47 -129 84 -236 110 -314 208 -574 362 -955 90 -223 212 -481 251 -528 19 -23 39 -52 45 -64 29 -53 153 -94 347 -113 237 -23 921 -51 1555 -62 856 -15 1657 0 2415 47 266 16 321 23 427 53 78 22 116 44 127 75 5 12 23 40 40 61 17 22 44 62 61 90 36 65 145 317 220 511 32 83 81 206 109 274 83 201 321 871 321 905 0 7 -7 19 -15 26 -12 10 -40 8 -143 -8 -70 -12 -194 -28 -277 -38 -112 -12 -161 -22 -196 -39 -25 -13 -61 -26 -80 -30 -62 -11 -676 -35 -1194 -46 -280 -6 -517 -13 -525 -15 -12 -4 -11 -7 4 -16 22 -12 863 -4 1226 11 695 30 878 35 919 23 47 -14 71 -50 71 -105 0 -71 -118 -456 -227 -742 -70 -181 -250 -563 -302 -639 -70 -101 -179 -133 -501 -146 -124 -6 -310 -14 -415 -19 -294 -15 -948 -24 -1635 -23 -604 2 -1499 17 -1550 27 -14 3 -134 9 -267 15 -330 13 -436 39 -512 126 -50 57 -233 438 -321 669 -130 339 -223 655 -218 742 3 56 4 58 43 80 36 20 54 23 170 23 72 0 265 -7 430 -15 442 -22 852 -32 1282 -31 339 1 408 4 392 20 -2 3 -184 7 -404 10 -220 4 -535 11 -700 16 -610 21 -756 34 -818 74 -12 8 -67 20 -122 25 -213 23 -292 33 -358 47 -99 20 -116 19 -128 -13z"/>
<path d="M47 2183 c-3 -5 -8 -38 -11 -73 -4 -47 -3 -56 3 -32 5 19 13 38 19 44 16 16 82 26 269 39 95 7 168 16 161 20 -16 10 -435 12 -441 2z"/>
<path d="M7485 2180 c-14 -6 -1 -9 45 -9 36 -1 125 -6 199 -11 78 -6 138 -7 143 -2 6 6 -44 12 -119 16 -70 4 -155 9 -188 11 -33 2 -69 0 -80 -5z"/>
<path d="M7910 2155 c0 -6 57 -35 70 -35 16 0 12 27 -6 34 -19 7 -64 8 -64 1z"/>
<path d="M7986 2019 c-18 -78 -25 -123 -32 -197 l-7 -84 -36 6 c-20 4 -112 15 -206 26 -93 11 -211 25 -262 31 -101 13 -123 9 -123 -20 0 -21 24 -30 85 -32 22 -1 54 -5 70 -9 38 -10 -289 -5 -331 5 -29 7 -32 5 -52 -43 -12 -28 -22 -54 -22 -57 0 -33 -389 -925 -458 -1049 -24 -43 -40 -81 -37 -84 17 -17 158 249 251 473 73 175 104 247 245 560 l67 150 58 -1 c33 -1 128 -5 212 -9 150 -8 152 -8 152 13 0 11 -8 23 -17 25 -10 3 67 4 170 3 186 -1 188 -1 193 -23 8 -31 14 -29 57 15 l37 38 0 99 c0 100 8 133 29 121 7 -5 11 4 11 24 0 23 -4 31 -14 27 -7 -3 -18 -1 -24 5 -8 8 -12 4 -16 -13z"/>
<path d="M59 1925 c-3 -5 0 -44 7 -85 6 -41 12 -59 12 -40 0 51 -12 137 -19 125z"/>
<path d="M736 1811 c-7 -10 19 -33 62 -55 37 -19 39 -13 12 32 -19 31 -61 45 -74 23z"/>
<path d="M7218 1809 c-10 -5 -18 -17 -18 -24 0 -20 60 -20 86 0 16 13 17 16 4 25 -19 12 -50 12 -72 -1z"/>
<path d="M590 1799 c-30 -4 -132 -15 -227 -24 -189 -18 -262 -32 -228 -46 39 -15 570 14 581 32 7 13 -34 49 -53 48 -10 -1 -43 -6 -73 -10z"/>
<path d="M876 1741 c-3 -5 2 -11 12 -13 12 -4 57 -104 151 -339 90 -225 170 -405 245 -551 61 -119 112 -215 114 -213 2 2 -6 22 -18 45 -64 125 -283 629 -385 885 -37 94 -72 176 -78 183 -11 14 -33 16 -41 3z"/>
<path d="M585 1714 c-49 -7 -171 -16 -270 -20 -160 -6 -183 -5 -197 10 -24 23 -36 20 -30 -9 3 -19 11 -25 31 -25 267 -4 417 2 533 22 195 33 136 53 -67 22z"/>
<path d="M3000 1665 c0 -8 4 -15 9 -15 5 0 14 7 21 15 10 13 9 15 -9 15 -12 0 -21 -6 -21 -15z"/>
<path d="M3653 1673 c202 -2 532 -2 735 0 202 1 36 2 -368 2 -404 0 -570 -1 -367 -2z"/>
<path d="M5002 1671 c2 -7 7 -12 11 -12 12 1 9 15 -3 20 -7 2 -11 -2 -8 -8z"/>
<path d="M6120 1653 c0 -12 5 -25 10 -28 13 -8 13 15 0 35 -8 12 -10 11 -10 -7z"/>
<path d="M1903 1490 c-6 -16 -7 -32 -2 -35 4 -3 11 5 15 19 9 39 0 51 -13 16z"/>
<path d="M5603 1203 c9 -2 25 -2 35 0 9 3 1 5 -18 5 -19 0 -27 -2 -17 -5z"/>
<path d="M2651 1196 c7 -7 169 -9 176 -2 3 3 -36 6 -87 6 -51 0 -91 -2 -89 -4z"/>
<path d="M5263 1193 c26 -2 67 -2 90 0 23 2 2 3 -48 3 -49 0 -68 -1 -42 -3z"/>
<path d="M3620 1171 c-5 -11 -10 -21 -10 -23 0 -5 704 2 729 7 60 14 2 18 -491 30 -208 5 -218 4 -228 -14z"/>
<path d="M1721 1155 c-1 -24 14 -50 22 -38 3 4 -1 19 -9 33 -12 22 -13 23 -13 5z"/>
<path d="M3571 1027 c-13 -71 -12 -80 2 -95 9 -8 19 -13 22 -11 3 3 1 46 -3 95 l-7 89 -14 -78z"/>
<path d="M1760 1021 c0 -9 28 -41 35 -41 3 0 -1 11 -7 25 -11 25 -28 34 -28 16z"/>
<path d="M6220 931 c-6 -12 -7 -21 -1 -21 10 0 24 30 17 37 -2 3 -9 -5 -16 -16z"/>
<path d="M1803 904 c-7 -18 10 -38 27 -32 9 3 8 8 -3 20 -9 8 -13 18 -10 22 4 3 3 6 -1 6 -3 0 -9 -7 -13 -16z"/>
<path d="M4110 900 c-11 -7 -3 -10 28 -10 26 0 41 4 37 10 -8 13 -45 13 -65 0z"/>
<path d="M5837 824 c-3 -4 -21 -10 -39 -14 -27 -7 -21 -8 34 -9 37 -1 69 3 72 8 4 5 -2 7 -13 4 -10 -3 -22 0 -25 6 -8 12 -20 14 -29 5z"/>
<path d="M2153 808 c-2 -5 37 -8 86 -8 50 0 91 3 91 8 0 4 -39 7 -86 7 -47 0 -88 -3 -91 -7z"/>
<path d="M1473 475 c15 -31 54 -71 61 -64 2 2 -14 24 -36 49 -34 37 -38 40 -25 15z"/>
<path d="M6435 395 c-92 -52 -224 -82 -416 -94 -802 -54 -883 -56 -2044 -55 -791 0 -1123 4 -1210 13 -158 16 -568 32 -578 22 -4 -4 59 -13 140 -20 484 -41 488 -41 1793 -40 701 0 1307 2 1345 5 39 3 185 9 325 14 274 9 432 30 512 68 24 12 79 36 123 54 50 21 81 40 83 51 5 23 -3 21 -73 -18z"/>
<path d="M1625 355 c39 -24 79 -45 90 -46 11 -1 31 -3 45 -4 116 -12 200 -14 200 -7 0 11 -57 22 -115 22 -57 0 -160 26 -217 55 -78 39 -80 29 -3 -20z"/>
</g>
<g id="layer106" fill="#bec2c5" stroke="none">
<path d="M6728 5593 c34 -2 88 -2 120 0 31 2 3 3 -63 3 -66 0 -92 -1 -57 -3z"/>
<path d="M6928 5593 c12 -2 30 -2 40 0 9 3 -1 5 -23 4 -22 0 -30 -2 -17 -4z"/>
<path d="M1748 3569 c-18 -10 -25 -39 -10 -39 13 0 52 30 52 41 0 12 -20 11 -42 -2z"/>
<path d="M8017 2023 c-12 -12 -7 -22 8 -17 8 4 15 10 15 15 0 11 -14 12 -23 2z"/>
<path d="M7475 1770 c28 -12 67 -12 60 0 -3 6 -23 10 -43 9 -30 0 -33 -2 -17 -9z"/>
</g>


</svg>